<?xml version="1.0" encoding="UTF-8"?>
<!DOCTYPE svg PUBLIC "-//W3C//DTD SVG 1.1//EN" "http://www.w3.org/Graphics/SVG/1.1/DTD/svg11.dtd">
<svg xmlns="http://www.w3.org/2000/svg" version="1.1" width="256px" height="256px" style="shape-rendering:geometricPrecision; text-rendering:geometricPrecision; image-rendering:optimizeQuality; fill-rule:evenodd; clip-rule:evenodd" xmlns:xlink="http://www.w3.org/1999/xlink">
<g><path style="opacity:0.722" fill="#242d35" d="M 103.5,4.5 C 101.162,6.03954 98.4951,6.70621 95.5,6.5C 97.9052,5.2318 100.572,4.56513 103.5,4.5 Z"/></g>
<g><path style="opacity:1" fill="#597990" d="M 146.5,5.5 C 146.918,6.22158 147.584,6.72158 148.5,7C 143.78,7.71682 139.114,7.55016 134.5,6.5C 119.392,6.30842 104.392,7.14175 89.5,9C 91.7226,8.43381 93.7226,7.60047 95.5,6.5C 98.4951,6.70621 101.162,6.03954 103.5,4.5C 117.922,1.74526 132.256,2.07859 146.5,5.5 Z"/></g>
<g><path style="opacity:1" fill="#476881" d="M 146.5,5.5 C 167.879,9.6864 186.213,19.3531 201.5,34.5C 198.892,34.5997 196.558,33.9331 194.5,32.5C 182.216,22.6915 168.55,15.5249 153.5,11C 150.183,10.5017 146.85,10.335 143.5,10.5C 140.452,8.52972 138.285,9.19639 137,12.5C 136.667,12.1667 136.333,11.8333 136,11.5C 135.415,12.9976 135.915,13.9976 137.5,14.5C 138.6,15.6049 139.267,16.9382 139.5,18.5C 139.157,20.2252 138.157,20.7252 136.5,20C 134.469,15.3369 133.136,15.5036 132.5,20.5C 129.158,18.6652 125.491,17.4985 121.5,17C 120.531,15.2417 119.364,14.7417 118,15.5C 111.371,14.5567 104.871,14.0567 98.5,14C 99.4695,12.2417 100.636,11.7417 102,12.5C 106.196,10.3201 110.696,8.82015 115.5,8C 122.013,7.82793 128.347,7.32793 134.5,6.5C 139.114,7.55016 143.78,7.71682 148.5,7C 147.584,6.72158 146.918,6.22158 146.5,5.5 Z"/></g>
<g><path style="opacity:1" fill="#557a94" d="M 95.5,6.5 C 93.7226,7.60047 91.7226,8.43381 89.5,9C 104.392,7.14175 119.392,6.30842 134.5,6.5C 128.347,7.32793 122.013,7.82793 115.5,8C 110.696,8.82015 106.196,10.3201 102,12.5C 100.636,11.7417 99.4695,12.2417 98.5,14C 104.871,14.0567 111.371,14.5567 118,15.5C 119.364,14.7417 120.531,15.2417 121.5,17C 125.491,17.4985 129.158,18.6652 132.5,20.5C 133.842,21.793 135.509,22.6264 137.5,23C 136.619,23.7083 135.953,24.5416 135.5,25.5C 135.167,25.5 134.833,25.5 134.5,25.5C 127.699,22.9532 121.032,20.7866 114.5,19C 108.798,18.6003 103.298,18.4337 98,18.5C 97.1482,19.5707 96.3149,20.5707 95.5,21.5C 95.3905,18.4659 94.0572,17.4659 91.5,18.5C 90.5344,16.604 90.2011,14.604 90.5,12.5C 83.1688,14.9976 76.1688,18.331 69.5,22.5C 70.376,23.2508 71.376,23.7508 72.5,24C 72.1667,24.3333 71.8333,24.6667 71.5,25C 72.4158,25.2784 73.0825,25.7784 73.5,26.5C 73.4173,28.5695 72.4173,28.9028 70.5,27.5C 67.7213,28.3888 65.0546,29.5555 62.5,31C 63.2524,31.6708 63.5858,32.5041 63.5,33.5C 61.2911,32.104 59.7911,30.104 59,27.5C 57.8904,29.0368 56.3904,29.7035 54.5,29.5C 63.1954,25.6374 71.1954,20.4708 78.5,14C 77.2068,13.51 75.8734,13.3433 74.5,13.5C 81.0854,10.1937 88.0854,7.86039 95.5,6.5 Z"/></g>
<g><path style="opacity:1" fill="#396787" d="M 95.5,21.5 C 93.5471,20.0012 91.8804,20.3345 90.5,22.5C 89.914,22.2907 89.414,21.9574 89,21.5C 83.6082,23.4995 78.4415,25.1662 73.5,26.5C 73.0825,25.7784 72.4158,25.2784 71.5,25C 71.8333,24.6667 72.1667,24.3333 72.5,24C 71.376,23.7508 70.376,23.2508 69.5,22.5C 76.1688,18.331 83.1688,14.9976 90.5,12.5C 90.2011,14.604 90.5344,16.604 91.5,18.5C 94.0572,17.4659 95.3905,18.4659 95.5,21.5 Z"/></g>
<g><path style="opacity:0.722" fill="#29353e" d="M 70.5,15.5 C 70.0269,16.9063 69.0269,17.573 67.5,17.5C 67.9731,16.0937 68.9731,15.427 70.5,15.5 Z"/></g>
<g><path style="opacity:1" fill="#0f3557" d="M 137.5,14.5 C 153.035,20.3346 165.369,30.5013 174.5,45C 174.167,45.3333 173.833,45.6667 173.5,46C 174.833,47 176.167,48 177.5,49C 177.167,49.3333 176.833,49.6667 176.5,50C 177.399,51.6516 178.399,53.1516 179.5,54.5C 178.779,58.5382 179.279,62.5382 181,66.5C 182.915,67.9156 184.415,67.5822 185.5,65.5C 186.824,64.1501 187.824,64.3167 188.5,66C 189.863,68.5081 190.196,71.0081 189.5,73.5C 188.818,72.7573 188.151,72.0906 187.5,71.5C 187.294,69.4508 186.461,69.1175 185,70.5C 184.366,73.5547 184.532,76.5547 185.5,79.5C 183.565,80.1495 181.565,80.4828 179.5,80.5C 179.879,66.9438 175.879,54.2771 167.5,42.5C 165.979,40.7091 164.146,39.3758 162,38.5C 160.961,36.2537 159.794,34.087 158.5,32C 157.175,32.1484 156.008,31.9817 155,31.5C 154.727,29.8988 154.227,28.3988 153.5,27C 149.277,23.3906 144.61,20.5572 139.5,18.5C 139.267,16.9382 138.6,15.6049 137.5,14.5 Z"/></g>
<g><path style="opacity:1" fill="#2f4e66" d="M 143.5,10.5 C 146.85,10.335 150.183,10.5017 153.5,11C 168.55,15.5249 182.216,22.6915 194.5,32.5C 202.173,39.0079 209.006,46.3412 215,54.5C 215.49,55.7932 215.657,57.1266 215.5,58.5C 212.91,54.7312 210.077,51.0645 207,47.5C 199.934,42.253 193.434,36.5863 187.5,30.5C 174.454,20.2406 159.788,13.5739 143.5,10.5 Z"/></g>
<g><path style="opacity:0.722" fill="#303e4a" d="M 63.5,19.5 C 63.0269,20.9063 62.0269,21.573 60.5,21.5C 60.9731,20.0937 61.9731,19.427 63.5,19.5 Z"/></g>
<g><path style="opacity:1" fill="#77a2bd" d="M 131.5,28.5 C 129.95,29.4408 128.284,30.1075 126.5,30.5C 126.38,29.4138 125.713,28.7472 124.5,28.5C 121.187,27.8817 118.021,26.8817 115,25.5C 113.732,25.6158 112.398,25.9491 111,26.5C 110.667,25.8333 110.333,25.1667 110,24.5C 107.045,25.0818 103.878,25.0818 100.5,24.5C 99.2724,26.1759 97.9391,26.5092 96.5,25.5C 96.0472,24.5416 95.3805,23.7083 94.5,23C 99.2897,22.0383 103.956,21.5383 108.5,21.5C 114.184,22.5036 119.851,23.6703 125.5,25C 127.727,25.941 129.727,27.1077 131.5,28.5 Z"/></g>
<g><path style="opacity:1" fill="#031d36" d="M 187.5,30.5 C 188.823,32.4714 190.156,34.4714 191.5,36.5C 189.498,39.174 188.498,42.174 188.5,45.5C 187.441,47.5554 185.775,48.8888 183.5,49.5C 183.358,46.383 182.024,43.883 179.5,42C 174.898,34.3525 168.898,27.3525 161.5,21C 162.749,19.1759 163.915,19.3426 165,21.5C 165.333,21.1667 165.667,20.8333 166,20.5C 173.144,23.9899 180.31,27.3233 187.5,30.5 Z"/></g>
<g><path style="opacity:1" fill="#5d8faf" d="M 134.5,25.5 C 133.833,26.8333 132.833,27.8333 131.5,28.5C 129.727,27.1077 127.727,25.941 125.5,25C 119.851,23.6703 114.184,22.5036 108.5,21.5C 103.956,21.5383 99.2897,22.0383 94.5,23C 95.3805,23.7083 96.0472,24.5416 96.5,25.5C 96.4431,26.609 96.1098,27.609 95.5,28.5C 92.2893,28.012 89.456,28.6787 87,30.5C 86.6667,29.8333 86.3333,29.1667 86,28.5C 85,29.5 84,30.5 83,31.5C 82.0255,29.1224 81.3589,29.4557 81,32.5C 80.6667,31.8333 80.3333,31.1667 80,30.5C 79.2766,32.7899 78.11,33.7899 76.5,33.5C 72.2062,33.7955 68.5395,35.4622 65.5,38.5C 65.8799,36.302 65.2132,34.6354 63.5,33.5C 63.5858,32.5041 63.2524,31.6708 62.5,31C 65.0546,29.5555 67.7213,28.3888 70.5,27.5C 72.4173,28.9028 73.4173,28.5695 73.5,26.5C 78.4415,25.1662 83.6082,23.4995 89,21.5C 89.414,21.9574 89.914,22.2907 90.5,22.5C 91.8804,20.3345 93.5471,20.0012 95.5,21.5C 96.3149,20.5707 97.1482,19.5707 98,18.5C 103.298,18.4337 108.798,18.6003 114.5,19C 121.032,20.7866 127.699,22.9532 134.5,25.5 Z"/></g>
<g><path style="opacity:1" fill="#94c1da" d="M 126.5,30.5 C 125.209,30.2627 124.209,30.596 123.5,31.5C 122.326,32.5137 121.66,33.847 121.5,35.5C 121.167,35.5 120.833,35.5 120.5,35.5C 116.401,34.3585 112.568,33.3585 109,32.5C 104.126,33.1032 98.6259,33.4366 92.5,33.5C 92.5,32.1667 92.5,30.8333 92.5,29.5C 93.791,29.7373 94.791,29.404 95.5,28.5C 96.1098,27.609 96.4431,26.609 96.5,25.5C 97.9391,26.5092 99.2724,26.1759 100.5,24.5C 103.878,25.0818 107.045,25.0818 110,24.5C 110.333,25.1667 110.667,25.8333 111,26.5C 112.398,25.9491 113.732,25.6158 115,25.5C 118.021,26.8817 121.187,27.8817 124.5,28.5C 125.713,28.7472 126.38,29.4138 126.5,30.5 Z"/></g>
<g><path style="opacity:0.831" fill="#3c4f5e" d="M 48.5,30.5 C 46.7607,33.2427 44.4274,35.2427 41.5,36.5C 43.2393,33.7573 45.5726,31.7573 48.5,30.5 Z"/></g>
<g><path style="opacity:1" fill="#6bb2df" d="M 95.5,28.5 C 94.791,29.404 93.791,29.7373 92.5,29.5C 92.5,30.8333 92.5,32.1667 92.5,33.5C 89.4449,35.0895 85.7783,36.4229 81.5,37.5C 79.246,36.8763 77.5794,35.543 76.5,33.5C 78.11,33.7899 79.2766,32.7899 80,30.5C 80.3333,31.1667 80.6667,31.8333 81,32.5C 81.3589,29.4557 82.0255,29.1224 83,31.5C 84,30.5 85,29.5 86,28.5C 86.3333,29.1667 86.6667,29.8333 87,30.5C 89.456,28.6787 92.2893,28.012 95.5,28.5 Z"/></g>
<g><path style="opacity:1" fill="#4686b3" d="M 131.5,28.5 C 132.122,29.6266 132.955,30.6266 134,31.5C 135.525,31.8881 137.192,31.8881 139,31.5C 141.317,33.9825 143.817,36.3158 146.5,38.5C 144.482,39.0472 142.649,40.0472 141,41.5C 139.961,40.7562 139.461,39.7562 139.5,38.5C 138.811,37.2264 137.977,37.2264 137,38.5C 133.288,34.3957 128.788,32.0624 123.5,31.5C 124.209,30.596 125.209,30.2627 126.5,30.5C 128.284,30.1075 129.95,29.4408 131.5,28.5 Z"/></g>
<g><path style="opacity:1" fill="#0b2d48" d="M 143.5,10.5 C 159.788,13.5739 174.454,20.2406 187.5,30.5C 180.31,27.3233 173.144,23.9899 166,20.5C 165.667,20.8333 165.333,21.1667 165,21.5C 163.915,19.3426 162.749,19.1759 161.5,21C 168.898,27.3525 174.898,34.3525 179.5,42C 182.024,43.883 183.358,46.383 183.5,49.5C 183.473,51.1993 182.806,52.5326 181.5,53.5C 180.833,53.8333 180.167,54.1667 179.5,54.5C 178.399,53.1516 177.399,51.6516 176.5,50C 176.833,49.6667 177.167,49.3333 177.5,49C 176.167,48 174.833,47 173.5,46C 173.833,45.6667 174.167,45.3333 174.5,45C 165.369,30.5013 153.035,20.3346 137.5,14.5C 135.915,13.9976 135.415,12.9976 136,11.5C 136.333,11.8333 136.667,12.1667 137,12.5C 138.285,9.19639 140.452,8.52972 143.5,10.5 Z"/></g>
<g><path style="opacity:1" fill="#9ccae2" d="M 76.5,33.5 C 77.5794,35.543 79.246,36.8763 81.5,37.5C 80.5894,40.3021 78.9227,42.6354 76.5,44.5C 75.5,43.1667 74.5,41.8333 73.5,40.5C 72.6143,41.325 72.281,42.325 72.5,43.5C 70.0922,45.9162 67.4256,47.9162 64.5,49.5C 62.7163,48.2801 61.0496,48.2801 59.5,49.5C 57.4012,48.6303 57.0679,47.297 58.5,45.5C 60.0453,44.5481 61.712,44.2148 63.5,44.5C 63.6036,42.2972 64.2702,40.2972 65.5,38.5C 68.5395,35.4622 72.2062,33.7955 76.5,33.5 Z"/></g>
<g><path style="opacity:1" fill="#507f9e" d="M 63.5,33.5 C 65.2132,34.6354 65.8799,36.302 65.5,38.5C 64.8826,38.3893 64.3826,38.056 64,37.5C 58.8521,39.4682 54.6854,42.8015 51.5,47.5C 50.3914,46.4104 49.3914,46.4104 48.5,47.5C 47.8333,48.8333 47.1667,50.1667 46.5,51.5C 48.4224,52.96 49.0891,54.6267 48.5,56.5C 45.7112,61.9944 42.7112,67.3277 39.5,72.5C 38.5207,71.2347 37.5207,69.9014 36.5,68.5C 35.0981,68.8655 34.0981,69.6988 33.5,71C 32.7854,75.8832 31.7854,80.7165 30.5,85.5C 28.4313,101.492 32.4313,116.159 42.5,129.5C 42.5299,130.497 42.0299,131.164 41,131.5C 39.2341,130.767 37.4008,130.433 35.5,130.5C 26.4816,115.064 23.6482,98.064 27,79.5C 30.405,70.0575 33.7384,60.7241 37,51.5C 31.4932,56.8271 26.9932,62.8271 23.5,69.5C 25.7677,62.9698 29.101,56.9698 33.5,51.5C 38.1115,48.3916 42.2782,44.725 46,40.5C 49.8807,44.8225 52.7141,44.1559 54.5,38.5C 53.9338,35.5826 53.9338,32.5826 54.5,29.5C 56.3904,29.7035 57.8904,29.0368 59,27.5C 59.7911,30.104 61.2911,32.104 63.5,33.5 Z"/></g>
<g><path style="opacity:1" fill="#85b7d4" d="M 150.5,45.5 C 148.216,45.9752 146.216,46.9752 144.5,48.5C 142.5,48.1667 140.5,47.8333 138.5,47.5C 138.93,45.38 138.93,43.38 138.5,41.5C 136.071,40.1187 136.405,39.1187 139.5,38.5C 139.461,39.7562 139.961,40.7562 141,41.5C 142.649,40.0472 144.482,39.0472 146.5,38.5C 146.897,37.475 147.563,37.3083 148.5,38C 151.144,40.0848 151.811,42.5848 150.5,45.5 Z"/></g>
<g><path style="opacity:0.651" fill="#354552" d="M 41.5,36.5 C 39.5698,40.1002 36.9031,43.1002 33.5,45.5C 35.4302,41.8998 38.0969,38.8998 41.5,36.5 Z"/></g>
<g><path style="opacity:1" fill="#29608c" d="M 167.5,65.5 C 165.857,65.4802 164.524,66.1468 163.5,67.5C 163.167,66.8333 162.833,66.1667 162.5,65.5C 159.801,67.322 159.968,68.6553 163,69.5C 163.49,70.7932 163.657,72.1266 163.5,73.5C 162.432,74.4345 161.099,74.7678 159.5,74.5C 159.974,63.6743 157.974,53.3409 153.5,43.5C 152.482,44.1925 151.482,44.8592 150.5,45.5C 151.811,42.5848 151.144,40.0848 148.5,38C 147.563,37.3083 146.897,37.475 146.5,38.5C 143.817,36.3158 141.317,33.9825 139,31.5C 137.192,31.8881 135.525,31.8881 134,31.5C 132.955,30.6266 132.122,29.6266 131.5,28.5C 132.833,27.8333 133.833,26.8333 134.5,25.5C 134.833,25.5 135.167,25.5 135.5,25.5C 135.735,26.0967 136.235,26.4301 137,26.5C 138.221,25.7282 139.221,24.7282 140,23.5C 145.844,27.9246 152.011,32.7579 158.5,38C 158.043,38.414 157.709,38.914 157.5,39.5C 163.11,46.487 167.11,54.3203 169.5,63C 168.934,63.9947 168.267,64.828 167.5,65.5 Z"/></g>
<g><path style="opacity:1" fill="#9addfc" d="M 92.5,33.5 C 92.7085,40.056 93.5419,46.3894 95,52.5C 94.1519,50.1257 92.8186,48.1257 91,46.5C 84.1041,47.6908 78.6041,51.0242 74.5,56.5C 75.1667,57.1667 75.8333,57.8333 76.5,58.5C 75.8075,59.5178 75.1408,60.5178 74.5,61.5C 74.0512,63.5329 73.0512,65.1996 71.5,66.5C 70.8333,66.1667 70.1667,65.8333 69.5,65.5C 68.9074,62.3417 67.5741,59.675 65.5,57.5C 65.3893,56.8826 65.056,56.3826 64.5,56C 62.1902,55.5034 59.8568,55.3367 57.5,55.5C 59.631,53.6035 61.9644,51.9368 64.5,50.5C 66.1824,52.3468 68.1824,53.8468 70.5,55C 71.635,55.7494 72.635,55.5827 73.5,54.5C 73.2907,53.914 72.9574,53.414 72.5,53C 74.2909,52.5848 75.6243,51.5848 76.5,50C 75.7659,47.4393 74.4325,45.2726 72.5,43.5C 72.281,42.325 72.6143,41.325 73.5,40.5C 74.5,41.8333 75.5,43.1667 76.5,44.5C 78.9227,42.6354 80.5894,40.3021 81.5,37.5C 85.7783,36.4229 89.4449,35.0895 92.5,33.5 Z"/></g>
<g><path style="opacity:0.651" fill="#26313a" d="M 209.5,42.5 C 211.262,43.2623 212.262,44.5956 212.5,46.5C 210.738,45.7377 209.738,44.4044 209.5,42.5 Z"/></g>
<g><path style="opacity:1" fill="#c2ebfd" d="M 72.5,43.5 C 74.4325,45.2726 75.7659,47.4393 76.5,50C 75.6243,51.5848 74.2909,52.5848 72.5,53C 72.9574,53.414 73.2907,53.914 73.5,54.5C 72.635,55.5827 71.635,55.7494 70.5,55C 68.1824,53.8468 66.1824,52.3468 64.5,50.5C 64.5,50.1667 64.5,49.8333 64.5,49.5C 67.4256,47.9162 70.0922,45.9162 72.5,43.5 Z"/></g>
<g><path style="opacity:1" fill="#a1e2fe" d="M 111.5,43.5 C 111.34,45.1992 111.506,46.8659 112,48.5C 112.333,48.1667 112.667,47.8333 113,47.5C 128.366,63.3578 128.866,79.5244 114.5,96C 104.031,103.673 93.0315,104.84 81.5,99.5C 79.5517,98.9189 77.2184,98.2522 74.5,97.5C 74.3573,95.7376 74.6906,94.0709 75.5,92.5C 74.1667,91.8333 72.8333,91.1667 71.5,90.5C 71.6667,90.1667 71.8333,89.8333 72,89.5C 76.3398,89.0546 80.5065,88.0546 84.5,86.5C 84.8518,89.1038 84.1852,91.7705 82.5,94.5C 85.627,94.98 88.4604,95.98 91,97.5C 91.7172,96.9558 92.2172,96.2891 92.5,95.5C 92.369,94.7611 92.5357,94.0944 93,93.5C 93.4935,95.1341 93.6602,96.8008 93.5,98.5C 115.081,95.0807 123.248,82.7473 118,61.5C 116.412,57.745 113.912,54.745 110.5,52.5C 109.515,54.772 108.681,57.1053 108,59.5C 107.536,58.9056 107.369,58.2389 107.5,57.5C 108.32,52.5711 109.654,47.9044 111.5,43.5 Z"/></g>
<g><path style="opacity:1" fill="#69b1de" d="M 126.5,108.5 C 124.735,111.709 122.735,114.709 120.5,117.5C 114.032,119.6 107.532,121.6 101,123.5C 87.9173,124.543 75.7507,120.877 64.5,112.5C 65.2427,111.818 65.9094,111.151 66.5,110.5C 67.3414,108.621 67.6747,106.621 67.5,104.5C 69.9514,109.272 73.9514,112.439 79.5,114C 105.795,120.935 124.628,112.101 136,87.5C 141.607,67.9263 136.941,51.2597 122,37.5C 120.585,39.3188 119.085,39.9854 117.5,39.5C 119.229,38.7638 120.229,37.4305 120.5,35.5C 120.833,35.5 121.167,35.5 121.5,35.5C 122.458,35.0472 123.292,34.3805 124,33.5C 127.881,35.4456 131.214,38.1123 134,41.5C 137.223,48.6169 139.89,55.9502 142,63.5C 144.634,81.4386 139.467,96.4386 126.5,108.5 Z"/></g>
<g><path style="opacity:0.831" fill="#28333c" d="M 212.5,46.5 C 214.587,47.5846 215.92,49.2512 216.5,51.5C 214.413,50.4154 213.08,48.7488 212.5,46.5 Z"/></g>
<g><path style="opacity:1" fill="#18466e" d="M 139.5,18.5 C 144.61,20.5572 149.277,23.3906 153.5,27C 154.227,28.3988 154.727,29.8988 155,31.5C 156.008,31.9817 157.175,32.1484 158.5,32C 159.794,34.087 160.961,36.2537 162,38.5C 164.146,39.3758 165.979,40.7091 167.5,42.5C 175.879,54.2771 179.879,66.9438 179.5,80.5C 179.509,82.3084 179.009,83.9751 178,85.5C 174.949,88.9994 171.783,91.3327 168.5,92.5C 167.4,91.4415 166.066,90.6082 164.5,90C 165.056,89.6174 165.389,89.1174 165.5,88.5C 168.096,87.7347 170.763,87.4013 173.5,87.5C 173.297,85.6096 173.963,84.1096 175.5,83C 171.121,79.42 169.121,74.92 169.5,69.5C 166.942,68.7825 166.275,67.4491 167.5,65.5C 168.267,64.828 168.934,63.9947 169.5,63C 167.11,54.3203 163.11,46.487 157.5,39.5C 157.709,38.914 158.043,38.414 158.5,38C 152.011,32.7579 145.844,27.9246 140,23.5C 139.221,24.7282 138.221,25.7282 137,26.5C 136.235,26.4301 135.735,26.0967 135.5,25.5C 135.953,24.5416 136.619,23.7083 137.5,23C 135.509,22.6264 133.842,21.793 132.5,20.5C 133.136,15.5036 134.469,15.3369 136.5,20C 138.157,20.7252 139.157,20.2252 139.5,18.5 Z"/></g>
<g><path style="opacity:0.298" fill="#0c0f12" d="M 32.5,46.5 C 31.8763,48.754 30.543,50.4206 28.5,51.5C 29.1355,49.2054 30.4689,47.5387 32.5,46.5 Z"/></g>
<g><path style="opacity:1" fill="#589dca" d="M 123.5,31.5 C 128.788,32.0624 133.288,34.3957 137,38.5C 137.977,37.2264 138.811,37.2264 139.5,38.5C 136.405,39.1187 136.071,40.1187 138.5,41.5C 138.93,43.38 138.93,45.38 138.5,47.5C 140.617,49.063 142.95,50.3964 145.5,51.5C 152.866,71.9144 150.2,90.9144 137.5,108.5C 136.311,109.429 134.978,109.762 133.5,109.5C 131.139,109.326 128.806,108.993 126.5,108.5C 139.467,96.4386 144.634,81.4386 142,63.5C 139.89,55.9502 137.223,48.6169 134,41.5C 131.214,38.1123 127.881,35.4456 124,33.5C 123.292,34.3805 122.458,35.0472 121.5,35.5C 121.66,33.847 122.326,32.5137 123.5,31.5 Z"/></g>
<g><path style="opacity:0.408" fill="#151a1f" d="M 28.5,51.5 C 28.573,53.0269 27.9063,54.0269 26.5,54.5C 26.427,52.9731 27.0937,51.9731 28.5,51.5 Z"/></g>
<g><path style="opacity:1" fill="#488ab8" d="M 138.5,47.5 C 140.5,47.8333 142.5,48.1667 144.5,48.5C 144.56,49.0431 144.893,49.3764 145.5,49.5C 148.633,46.5688 150.8,47.2354 152,51.5C 158.308,71.9854 155.808,91.3188 144.5,109.5C 142.604,110.466 140.604,110.799 138.5,110.5C 136.585,110.784 134.919,110.451 133.5,109.5C 134.978,109.762 136.311,109.429 137.5,108.5C 150.2,90.9144 152.866,71.9144 145.5,51.5C 142.95,50.3964 140.617,49.063 138.5,47.5 Z"/></g>
<g><path style="opacity:1" fill="#8fd7fa" d="M 112.5,41.5 C 121.163,43.3129 126.997,48.6463 130,57.5C 136.914,82.8945 128.247,100.561 104,110.5C 103.667,110.167 103.333,109.833 103,109.5C 94.2748,111.896 85.4415,110.896 76.5,106.5C 75.4291,104.675 76.0958,103.508 78.5,103C 78.2716,102.601 77.9382,102.435 77.5,102.5C 77.5,102.167 77.5,101.833 77.5,101.5C 79.0618,101.267 80.3951,100.6 81.5,99.5C 93.0315,104.84 104.031,103.673 114.5,96C 128.866,79.5244 128.366,63.3578 113,47.5C 112.667,47.8333 112.333,48.1667 112,48.5C 111.506,46.8659 111.34,45.1992 111.5,43.5C 111.328,42.5084 111.662,41.8417 112.5,41.5 Z"/></g>
<g><path style="opacity:0.408" fill="#1c2329" d="M 216.5,51.5 C 218.262,52.2623 219.262,53.5956 219.5,55.5C 217.738,54.7377 216.738,53.4044 216.5,51.5 Z"/></g>
<g><path style="opacity:1" fill="#084665" d="M 188.5,45.5 C 190.074,45.9371 191.241,46.9371 192,48.5C 194.416,52.3011 195.916,56.3011 196.5,60.5C 197.391,61.2613 198.058,62.2613 198.5,63.5C 197.814,65.347 196.814,67.0137 195.5,68.5C 195.68,69.5539 196.013,70.5539 196.5,71.5C 194.546,73.4684 192.212,74.8018 189.5,75.5C 188.636,75.2976 187.636,74.9643 186.5,74.5C 187.127,73.5832 187.461,72.5832 187.5,71.5C 188.151,72.0906 188.818,72.7573 189.5,73.5C 190.196,71.0081 189.863,68.5081 188.5,66C 187.824,64.3167 186.824,64.1501 185.5,65.5C 184.733,61.3017 183.399,57.3017 181.5,53.5C 182.806,52.5326 183.473,51.1993 183.5,49.5C 185.775,48.8888 187.441,47.5554 188.5,45.5 Z"/></g>
<g><path style="opacity:1" fill="#b9e6fc" d="M 57.5,55.5 C 59.8568,55.3367 62.1902,55.5034 64.5,56C 65.056,56.3826 65.3893,56.8826 65.5,57.5C 64.2101,58.0577 63.3768,59.0577 63,60.5C 58.1477,77.3559 62.981,91.0226 77.5,101.5C 77.5,101.833 77.5,102.167 77.5,102.5C 75.9557,102.703 74.6223,103.37 73.5,104.5C 73.1654,102.997 73.1654,101.664 73.5,100.5C 71.7567,102.038 69.7567,103.038 67.5,103.5C 65.5071,100.643 63.3405,98.643 61,97.5C 61.4156,95.113 60.2489,93.2797 57.5,92C 57.5,91 57.5,90 57.5,89C 56.8799,86.8982 55.8799,86.0649 54.5,86.5C 55.8236,83.8643 55.8236,81.1977 54.5,78.5C 58.9594,75.0254 59.6261,70.8587 56.5,66C 56.3754,62.5153 56.7088,59.0153 57.5,55.5 Z"/></g>
<g><path style="opacity:1" fill="#bde8fe" d="M 120.5,35.5 C 120.229,37.4305 119.229,38.7638 117.5,39.5C 115.694,40.0241 114.028,40.6908 112.5,41.5C 111.662,41.8417 111.328,42.5084 111.5,43.5C 109.654,47.9044 108.32,52.5711 107.5,57.5C 106.897,59.1897 105.897,60.6897 104.5,62C 105.793,62.49 107.127,62.6567 108.5,62.5C 109.684,65.564 110.684,68.7306 111.5,72C 111.023,74.899 110.023,77.5657 108.5,80C 108.833,80.3333 109.167,80.6667 109.5,81C 108.167,82 106.833,83 105.5,84C 105.833,84.3333 106.167,84.6667 106.5,85C 103.027,86.4495 99.527,87.9495 96,89.5C 95.3333,86.8333 94.6667,86.8333 94,89.5C 92.2663,88.7511 90.433,88.2511 88.5,88C 89.8398,85.8215 89.5065,85.3215 87.5,86.5C 87.8076,84.076 87.4742,81.7427 86.5,79.5C 84.4698,77.393 82.3031,75.393 80,73.5C 79.2023,70.1069 78.2023,66.7735 77,63.5C 76.2917,62.6195 75.4584,61.9528 74.5,61.5C 75.1408,60.5178 75.8075,59.5178 76.5,58.5C 75.8333,57.8333 75.1667,57.1667 74.5,56.5C 78.6041,51.0242 84.1041,47.6908 91,46.5C 92.8186,48.1257 94.1519,50.1257 95,52.5C 93.5419,46.3894 92.7085,40.056 92.5,33.5C 98.6259,33.4366 104.126,33.1032 109,32.5C 112.568,33.3585 116.401,34.3585 120.5,35.5 Z"/></g>
<g><path style="opacity:1" fill="#b0e6fe" d="M 92.5,95.5 C 91.8301,92.5315 89.9968,90.5315 87,89.5C 86.5304,88.4232 86.6971,87.4232 87.5,86.5C 89.5065,85.3215 89.8398,85.8215 88.5,88C 90.433,88.2511 92.2663,88.7511 94,89.5C 94.6667,86.8333 95.3333,86.8333 96,89.5C 99.527,87.9495 103.027,86.4495 106.5,85C 106.167,84.6667 105.833,84.3333 105.5,84C 106.833,83 108.167,82 109.5,81C 109.167,80.6667 108.833,80.3333 108.5,80C 110.023,77.5657 111.023,74.899 111.5,72C 110.684,68.7306 109.684,65.564 108.5,62.5C 107.127,62.6567 105.793,62.49 104.5,62C 105.897,60.6897 106.897,59.1897 107.5,57.5C 107.369,58.2389 107.536,58.9056 108,59.5C 108.681,57.1053 109.515,54.772 110.5,52.5C 113.912,54.745 116.412,57.745 118,61.5C 123.248,82.7473 115.081,95.0807 93.5,98.5C 93.6602,96.8008 93.4935,95.1341 93,93.5C 92.5357,94.0944 92.369,94.7611 92.5,95.5 Z"/></g>
<g><path style="opacity:1" fill="#226085" d="M 181.5,53.5 C 183.399,57.3017 184.733,61.3017 185.5,65.5C 184.415,67.5822 182.915,67.9156 181,66.5C 179.279,62.5382 178.779,58.5382 179.5,54.5C 180.167,54.1667 180.833,53.8333 181.5,53.5 Z"/></g>
<g><path style="opacity:1" fill="#5b9ac4" d="M 65.5,38.5 C 64.2702,40.2972 63.6036,42.2972 63.5,44.5C 61.712,44.2148 60.0453,44.5481 58.5,45.5C 57.0679,47.297 57.4012,48.6303 59.5,49.5C 53.0608,57.045 48.7275,65.7117 46.5,75.5C 44.9382,75.2671 43.6049,74.6005 42.5,73.5C 41.791,72.596 40.791,72.2627 39.5,72.5C 42.7112,67.3277 45.7112,61.9944 48.5,56.5C 49.0891,54.6267 48.4224,52.96 46.5,51.5C 47.1667,50.1667 47.8333,48.8333 48.5,47.5C 49.3914,46.4104 50.3914,46.4104 51.5,47.5C 54.6854,42.8015 58.8521,39.4682 64,37.5C 64.3826,38.056 64.8826,38.3893 65.5,38.5 Z"/></g>
<g><path style="opacity:0.086" fill="#050708" d="M 219.5,55.5 C 226.745,64.6561 231.911,74.9894 235,86.5C 238.14,98.2893 239.807,110.289 240,122.5C 241.122,124.407 241.955,126.407 242.5,128.5C 240.588,126.343 238.921,124.009 237.5,121.5C 237.5,120.5 237.5,119.5 237.5,118.5C 237.548,95.718 231.548,74.718 219.5,55.5 Z"/></g>
<g><path style="opacity:1" fill="#74bde9" d="M 64.5,49.5 C 64.5,49.8333 64.5,50.1667 64.5,50.5C 61.9644,51.9368 59.631,53.6035 57.5,55.5C 56.7088,59.0153 56.3754,62.5153 56.5,66C 59.6261,70.8587 58.9594,75.0254 54.5,78.5C 55.8236,81.1977 55.8236,83.8643 54.5,86.5C 51.0825,84.1873 49.7492,80.854 50.5,76.5C 48.901,76.7678 47.5676,76.4345 46.5,75.5C 48.7275,65.7117 53.0608,57.045 59.5,49.5C 61.0496,48.2801 62.7163,48.2801 64.5,49.5 Z"/></g>
<g><path style="opacity:1" fill="#021a31" d="M 202.5,72.5 C 202.975,75.3126 201.975,77.3126 199.5,78.5C 198.85,78.1961 198.183,77.8627 197.5,77.5C 196.15,78.9501 194.484,79.6168 192.5,79.5C 191.458,78.2089 190.292,78.2089 189,79.5C 188.805,78.1807 188.972,76.8474 189.5,75.5C 192.212,74.8018 194.546,73.4684 196.5,71.5C 196.013,70.5539 195.68,69.5539 195.5,68.5C 196.814,67.0137 197.814,65.347 198.5,63.5C 198.058,62.2613 197.391,61.2613 196.5,60.5C 196.338,58.4727 196.505,56.4727 197,54.5C 199.792,51.6609 201.625,48.6609 202.5,45.5C 203.553,46.4383 204.22,47.605 204.5,49C 201.935,52.7935 201.102,56.9601 202,61.5C 203.989,63.7507 206.322,64.084 209,62.5C 210.627,62.6251 212.127,63.1251 213.5,64C 210.531,64.4091 207.531,65.0757 204.5,66C 201.723,68.1734 201.89,68.6734 205,67.5C 206.578,68.7113 206.745,70.0446 205.5,71.5C 203.775,69.9084 202.775,70.2417 202.5,72.5 Z"/></g>
<g><path style="opacity:0.262" fill="#010202" d="M 26.5,54.5 C 1.77518,95.8166 1.27518,137.483 25,179.5C 51.9476,219.052 89.4476,236.719 137.5,232.5C 138.708,231.766 140.041,231.433 141.5,231.5C 143.443,234.471 146.109,236.471 149.5,237.5C 155.378,242.275 162.045,245.775 169.5,248C 173.489,250.173 177.489,250.673 181.5,249.5C 185.533,248.975 189.2,247.642 192.5,245.5C 198.924,243.79 204.591,240.79 209.5,236.5C 229.458,223.946 241.458,205.946 245.5,182.5C 245.5,182.167 245.5,181.833 245.5,181.5C 247.075,178.471 248.241,175.138 249,171.5C 249.499,165.843 249.666,160.176 249.5,154.5C 252.218,181.85 244.551,206.017 226.5,227C 227.175,229.242 226.675,231.409 225,233.5C 221.584,235.792 218.084,237.959 214.5,240C 202.708,244.981 190.875,249.814 179,254.5C 172.837,250.857 166.504,250.191 160,252.5C 153.849,252.77 147.849,252.77 142,252.5C 137.333,253.167 132.667,253.833 128,254.5C 119.158,253.852 109.991,253.186 100.5,252.5C 75.2962,252.621 50.9628,247.788 27.5,238C 17.955,233.094 16.6217,226.761 23.5,219C 31.0748,215.202 38.7414,211.702 46.5,208.5C 11.4357,176.218 -1.06429,136.884 9,90.5C 12.5528,78.0661 17.7194,66.3994 24.5,55.5C 24.9569,54.7025 25.6236,54.3691 26.5,54.5 Z"/></g>
<g><path style="opacity:1" fill="#052942" d="M 187.5,30.5 C 193.434,36.5863 199.934,42.253 207,47.5C 210.077,51.0645 212.91,54.7312 215.5,58.5C 216.906,58.9731 217.573,59.9731 217.5,61.5C 225.748,76.8227 230.748,93.156 232.5,110.5C 231.395,109.4 230.062,108.733 228.5,108.5C 227.447,102.923 224.28,100.923 219,102.5C 217.152,97.2282 215.152,97.2282 213,102.5C 210.567,109.631 212.734,111.297 219.5,107.5C 221.073,107.752 222.406,108.418 223.5,109.5C 218.084,111.117 212.417,111.784 206.5,111.5C 207.23,109.955 208.563,109.122 210.5,109C 209.761,107.235 209.761,105.235 210.5,103C 209.74,101.559 209.074,100.059 208.5,98.5C 209.002,97.2836 209.335,96.1169 209.5,95C 206.833,94.3333 206.833,93.6667 209.5,93C 208.833,92.6667 208.167,92.3333 207.5,92C 207.616,90.7318 207.949,89.3985 208.5,88C 207.064,82.9035 205.064,77.7368 202.5,72.5C 202.775,70.2417 203.775,69.9084 205.5,71.5C 206.745,70.0446 206.578,68.7113 205,67.5C 201.89,68.6734 201.723,68.1734 204.5,66C 207.531,65.0757 210.531,64.4091 213.5,64C 212.127,63.1251 210.627,62.6251 209,62.5C 206.322,64.084 203.989,63.7507 202,61.5C 201.102,56.9601 201.935,52.7935 204.5,49C 204.22,47.605 203.553,46.4383 202.5,45.5C 201.625,48.6609 199.792,51.6609 197,54.5C 196.505,56.4727 196.338,58.4727 196.5,60.5C 195.916,56.3011 194.416,52.3011 192,48.5C 191.241,46.9371 190.074,45.9371 188.5,45.5C 188.498,42.174 189.498,39.174 191.5,36.5C 190.156,34.4714 188.823,32.4714 187.5,30.5 Z"/></g>
<g><path style="opacity:1" fill="#446e8b" d="M 35.5,130.5 C 34.8333,131.5 34.1667,132.5 33.5,133.5C 32.6909,135.292 32.1909,137.292 32,139.5C 29.7455,131.834 26.5788,124.667 22.5,118C 23.3081,117.692 23.9747,117.192 24.5,116.5C 24.0608,112.742 23.0608,108.908 21.5,105C 21.3273,100.241 21.6606,95.5742 22.5,91C 21.3474,89.117 19.6807,88.2837 17.5,88.5C 13.3213,102.504 11.3213,116.837 11.5,131.5C 10.6311,129.016 9.96443,126.349 9.5,123.5C 10.8489,113.861 12.0155,104.194 13,94.5C 15.2674,88.4644 17.1007,82.2978 18.5,76C 20.0679,73.6669 21.7346,71.5002 23.5,69.5C 26.9932,62.8271 31.4932,56.8271 37,51.5C 33.7384,60.7241 30.405,70.0575 27,79.5C 23.6482,98.064 26.4816,115.064 35.5,130.5 Z"/></g>
<g><path style="opacity:1" fill="#d1f1fe" d="M 65.5,57.5 C 67.5741,59.675 68.9074,62.3417 69.5,65.5C 70.1667,65.8333 70.8333,66.1667 71.5,66.5C 73.0512,65.1996 74.0512,63.5329 74.5,61.5C 75.4584,61.9528 76.2917,62.6195 77,63.5C 78.2023,66.7735 79.2023,70.1069 80,73.5C 82.3031,75.393 84.4698,77.393 86.5,79.5C 87.4742,81.7427 87.8076,84.076 87.5,86.5C 86.6971,87.4232 86.5304,88.4232 87,89.5C 89.9968,90.5315 91.8301,92.5315 92.5,95.5C 92.2172,96.2891 91.7172,96.9558 91,97.5C 88.4604,95.98 85.627,94.98 82.5,94.5C 84.1852,91.7705 84.8518,89.1038 84.5,86.5C 80.5065,88.0546 76.3398,89.0546 72,89.5C 71.8333,89.8333 71.6667,90.1667 71.5,90.5C 72.8333,91.1667 74.1667,91.8333 75.5,92.5C 74.6906,94.0709 74.3573,95.7376 74.5,97.5C 77.2184,98.2522 79.5517,98.9189 81.5,99.5C 80.3951,100.6 79.0618,101.267 77.5,101.5C 62.981,91.0226 58.1477,77.3559 63,60.5C 63.3768,59.0577 64.2101,58.0577 65.5,57.5 Z"/></g>
<g><path style="opacity:1" fill="#023a58" d="M 202.5,72.5 C 205.064,77.7368 207.064,82.9035 208.5,88C 207.949,89.3985 207.616,90.7318 207.5,92C 208.167,92.3333 208.833,92.6667 209.5,93C 206.833,93.6667 206.833,94.3333 209.5,95C 209.335,96.1169 209.002,97.2836 208.5,98.5C 209.074,100.059 209.74,101.559 210.5,103C 209.761,105.235 209.761,107.235 210.5,109C 208.563,109.122 207.23,109.955 206.5,111.5C 205.5,111.5 204.5,111.5 203.5,111.5C 202.882,108.193 202.882,104.693 203.5,101C 202.833,100 202.167,99 201.5,98C 201.833,96.3333 202.167,94.6667 202.5,93C 201.308,88.2041 200.308,83.3708 199.5,78.5C 201.975,77.3126 202.975,75.3126 202.5,72.5 Z"/></g>
<g><path style="opacity:1" fill="#6da1c2" d="M 163.5,78.5 C 163.989,82.9301 161.989,85.2634 157.5,85.5C 158.386,83.2784 158.386,81.1118 157.5,79C 158.763,76.5364 160.763,75.3697 163.5,75.5C 163.5,76.5 163.5,77.5 163.5,78.5 Z"/></g>
<g><path style="opacity:1" fill="#a1d1ea" d="M 42.5,73.5 C 43.6049,74.6005 44.9382,75.2671 46.5,75.5C 47.5676,76.4345 48.901,76.7678 50.5,76.5C 49.7492,80.854 51.0825,84.1873 54.5,86.5C 55.8799,86.0649 56.8799,86.8982 57.5,89C 57.5,90 57.5,91 57.5,92C 60.2489,93.2797 61.4156,95.113 61,97.5C 63.3405,98.643 65.5071,100.643 67.5,103.5C 67.5,103.833 67.5,104.167 67.5,104.5C 67.6747,106.621 67.3414,108.621 66.5,110.5C 64.901,110.232 63.5676,110.566 62.5,111.5C 61.2264,110.811 61.2264,109.977 62.5,109C 60.0151,109.623 58.0151,108.623 56.5,106C 57.1667,105.333 57.8333,104.667 58.5,104C 56.0935,103.743 54.4268,102.576 53.5,100.5C 51.7028,99.2702 49.7028,98.6036 47.5,98.5C 47.3491,94.686 45.3491,93.0193 41.5,93.5C 40.6388,88.4507 40.3055,83.4507 40.5,78.5C 41.3426,76.4155 42.0092,74.7488 42.5,73.5 Z"/></g>
<g><path style="opacity:1" fill="#0e5c81" d="M 187.5,71.5 C 187.461,72.5832 187.127,73.5832 186.5,74.5C 187.636,74.9643 188.636,75.2976 189.5,75.5C 188.972,76.8474 188.805,78.1807 189,79.5C 190.292,78.2089 191.458,78.2089 192.5,79.5C 192.918,80.2216 193.584,80.7216 194.5,81C 194.5,84 194.5,87 194.5,90C 197.167,90.6667 197.167,91.3333 194.5,92C 195.167,93 195.833,94 196.5,95C 195.456,98.4778 195.456,101.978 196.5,105.5C 194.496,104.327 192.996,102.66 192,100.5C 191.333,101.5 191.333,102.5 192,103.5C 193.946,106.42 196.113,109.087 198.5,111.5C 196.265,111.795 194.265,111.461 192.5,110.5C 189.788,108.115 187.122,105.782 184.5,103.5C 185.429,102.685 186.429,101.852 187.5,101C 185.043,99.4877 185.043,98.1544 187.5,97C 186.833,96.6667 186.167,96.3333 185.5,96C 186.428,95.6121 187.095,94.9454 187.5,94C 187.088,90.8721 187.088,87.8721 187.5,85C 184.833,84.3333 184.833,83.6667 187.5,83C 186.833,82.6667 186.167,82.3333 185.5,82C 186.774,81.0228 186.774,80.1894 185.5,79.5C 184.532,76.5547 184.366,73.5547 185,70.5C 186.461,69.1175 187.294,69.4508 187.5,71.5 Z"/></g>
<g><path style="opacity:1" fill="#084b6b" d="M 199.5,78.5 C 200.308,83.3708 201.308,88.2041 202.5,93C 202.167,94.6667 201.833,96.3333 201.5,98C 202.167,99 202.833,100 203.5,101C 202.882,104.693 202.882,108.193 203.5,111.5C 202.833,111.5 202.5,111.833 202.5,112.5C 201.833,112.167 201.167,111.833 200.5,111.5C 200.762,110.022 200.429,108.689 199.5,107.5C 198.261,107.058 197.261,106.391 196.5,105.5C 195.456,101.978 195.456,98.4778 196.5,95C 195.833,94 195.167,93 194.5,92C 197.167,91.3333 197.167,90.6667 194.5,90C 194.5,87 194.5,84 194.5,81C 193.584,80.7216 192.918,80.2216 192.5,79.5C 194.484,79.6168 196.15,78.9501 197.5,77.5C 198.183,77.8627 198.85,78.1961 199.5,78.5 Z"/></g>
<g><path style="opacity:1" fill="#3977a4" d="M 163.5,73.5 C 165.048,73.8212 165.715,74.8212 165.5,76.5C 164.833,77.1667 164.167,77.8333 163.5,78.5C 163.5,77.5 163.5,76.5 163.5,75.5C 160.763,75.3697 158.763,76.5364 157.5,79C 158.386,81.1118 158.386,83.2784 157.5,85.5C 158.609,86.29 159.942,86.79 161.5,87C 157.956,95.2514 154.29,103.418 150.5,111.5C 147.71,111.751 144.71,111.751 141.5,111.5C 140.209,111.737 139.209,111.404 138.5,110.5C 140.604,110.799 142.604,110.466 144.5,109.5C 155.808,91.3188 158.308,71.9854 152,51.5C 150.8,47.2354 148.633,46.5688 145.5,49.5C 144.893,49.3764 144.56,49.0431 144.5,48.5C 146.216,46.9752 148.216,45.9752 150.5,45.5C 151.482,44.8592 152.482,44.1925 153.5,43.5C 157.974,53.3409 159.974,63.6743 159.5,74.5C 161.099,74.7678 162.432,74.4345 163.5,73.5 Z"/></g>
<g><path style="opacity:1" fill="#558eb2" d="M 167.5,65.5 C 166.275,67.4491 166.942,68.7825 169.5,69.5C 169.121,74.92 171.121,79.42 175.5,83C 173.963,84.1096 173.297,85.6096 173.5,87.5C 170.763,87.4013 168.096,87.7347 165.5,88.5C 165.721,87.2652 166.388,86.2652 167.5,85.5C 166.975,84.8076 166.308,84.3076 165.5,84C 166.833,83 166.833,82 165.5,81C 168.133,79.3111 168.133,77.8111 165.5,76.5C 165.715,74.8212 165.048,73.8212 163.5,73.5C 163.657,72.1266 163.49,70.7932 163,69.5C 159.968,68.6553 159.801,67.322 162.5,65.5C 162.833,66.1667 163.167,66.8333 163.5,67.5C 164.524,66.1468 165.857,65.4802 167.5,65.5 Z"/></g>
<g><path style="opacity:1" fill="#30779d" d="M 185.5,79.5 C 186.774,80.1894 186.774,81.0228 185.5,82C 186.167,82.3333 186.833,82.6667 187.5,83C 184.833,83.6667 184.833,84.3333 187.5,85C 187.088,87.8721 187.088,90.8721 187.5,94C 187.095,94.9454 186.428,95.6121 185.5,96C 186.167,96.3333 186.833,96.6667 187.5,97C 185.043,98.1544 185.043,99.4877 187.5,101C 186.429,101.852 185.429,102.685 184.5,103.5C 182.18,105.226 179.513,105.893 176.5,105.5C 176.5,106.5 176.5,107.5 176.5,108.5C 171.521,109.608 166.521,110.608 161.5,111.5C 160.833,111.5 160.167,111.5 159.5,111.5C 159.5,109.167 159.5,106.833 159.5,104.5C 163.167,104.5 166.833,104.5 170.5,104.5C 171.26,99.6889 169.593,96.0223 165.5,93.5C 166.325,92.6143 167.325,92.281 168.5,92.5C 171.783,91.3327 174.949,88.9994 178,85.5C 179.009,83.9751 179.509,82.3084 179.5,80.5C 181.565,80.4828 183.565,80.1495 185.5,79.5 Z"/></g>
<g><path style="opacity:1" fill="#79c2ee" d="M 67.5,104.5 C 67.5,104.167 67.5,103.833 67.5,103.5C 69.7567,103.038 71.7567,102.038 73.5,100.5C 73.1654,101.664 73.1654,102.997 73.5,104.5C 74.6223,103.37 75.9557,102.703 77.5,102.5C 77.9382,102.435 78.2716,102.601 78.5,103C 76.0958,103.508 75.4291,104.675 76.5,106.5C 85.4415,110.896 94.2748,111.896 103,109.5C 103.333,109.833 103.667,110.167 104,110.5C 128.247,100.561 136.914,82.8945 130,57.5C 126.997,48.6463 121.163,43.3129 112.5,41.5C 114.028,40.6908 115.694,40.0241 117.5,39.5C 119.085,39.9854 120.585,39.3188 122,37.5C 136.941,51.2597 141.607,67.9263 136,87.5C 124.628,112.101 105.795,120.935 79.5,114C 73.9514,112.439 69.9514,109.272 67.5,104.5 Z"/></g>
<g><path style="opacity:1" fill="#76a9c9" d="M 39.5,72.5 C 40.791,72.2627 41.791,72.596 42.5,73.5C 42.0092,74.7488 41.3426,76.4155 40.5,78.5C 40.3055,83.4507 40.6388,88.4507 41.5,93.5C 45.3491,93.0193 47.3491,94.686 47.5,98.5C 49.7028,98.6036 51.7028,99.2702 53.5,100.5C 52.2718,101.025 51.4384,102.358 51,104.5C 50.044,103.421 49.2106,102.255 48.5,101C 47.5509,100.383 46.7175,100.549 46,101.5C 45.3333,103.833 45.3333,106.167 46,108.5C 49.6836,113.679 53.8503,118.346 58.5,122.5C 57.3065,123.272 56.3065,124.272 55.5,125.5C 54.1667,126.167 53.1667,127.167 52.5,128.5C 48.5745,123.398 44.4078,118.398 40,113.5C 34.9491,103.967 33.4491,94.1338 35.5,84C 36.2779,79.8871 37.6113,76.0538 39.5,72.5 Z"/></g>
<g><path style="opacity:1" fill="#3a5b73" d="M 217.5,61.5 C 218.496,61.4142 219.329,61.7476 220,62.5C 220.491,66.8266 222.491,70.1599 226,72.5C 228.317,79.4513 230.65,86.4513 233,93.5C 233.864,100.845 234.698,108.178 235.5,115.5C 234.11,114.101 233.11,112.434 232.5,110.5C 230.748,93.156 225.748,76.8227 217.5,61.5 Z"/></g>
<g><path style="opacity:1" fill="#5d829c" d="M 194.5,32.5 C 196.558,33.9331 198.892,34.5997 201.5,34.5C 204.5,36.8333 207.167,39.5 209.5,42.5C 209.738,44.4044 210.738,45.7377 212.5,46.5C 213.08,48.7488 214.413,50.4154 216.5,51.5C 216.738,53.4044 217.738,54.7377 219.5,55.5C 231.548,74.718 237.548,95.718 237.5,118.5C 236.094,118.027 235.427,117.027 235.5,115.5C 234.698,108.178 233.864,100.845 233,93.5C 230.65,86.4513 228.317,79.4513 226,72.5C 222.491,70.1599 220.491,66.8266 220,62.5C 219.329,61.7476 218.496,61.4142 217.5,61.5C 217.573,59.9731 216.906,58.9731 215.5,58.5C 215.657,57.1266 215.49,55.7932 215,54.5C 209.006,46.3412 202.173,39.0079 194.5,32.5 Z"/></g>
<g><path style="opacity:1" fill="#011328" d="M 228.5,108.5 C 226.784,108.629 225.117,108.962 223.5,109.5C 222.406,108.418 221.073,107.752 219.5,107.5C 212.734,111.297 210.567,109.631 213,102.5C 215.152,97.2282 217.152,97.2282 219,102.5C 224.28,100.923 227.447,102.923 228.5,108.5 Z"/></g>
<g><path style="opacity:1" fill="#265270" d="M 33.5,133.5 C 32.9092,138.564 33.9092,143.231 36.5,147.5C 36.4361,148.365 36.1027,149.365 35.5,150.5C 33.7162,150.107 32.0495,149.441 30.5,148.5C 26.5044,146.341 24.3378,143.008 24,138.5C 21.7423,135.806 19.5757,133.139 17.5,130.5C 17.6168,128.516 16.9501,126.85 15.5,125.5C 14.7582,127.35 13.7582,128.016 12.5,127.5C 13.631,135.988 15.4644,144.322 18,152.5C 23.6481,163.425 29.1481,174.425 34.5,185.5C 33.2223,185.218 32.2223,184.551 31.5,183.5C 26.2067,175.6 21.3733,167.267 17,158.5C 14.0537,149.717 12.2204,140.717 11.5,131.5C 11.3213,116.837 13.3213,102.504 17.5,88.5C 19.6807,88.2837 21.3474,89.117 22.5,91C 21.6606,95.5742 21.3273,100.241 21.5,105C 23.0608,108.908 24.0608,112.742 24.5,116.5C 23.9747,117.192 23.3081,117.692 22.5,118C 26.5788,124.667 29.7455,131.834 32,139.5C 32.1909,137.292 32.6909,135.292 33.5,133.5 Z"/></g>
<g><path style="opacity:1" fill="#8abdd9" d="M 53.5,100.5 C 54.4268,102.576 56.0935,103.743 58.5,104C 57.8333,104.667 57.1667,105.333 56.5,106C 58.0151,108.623 60.0151,109.623 62.5,109C 61.2264,109.977 61.2264,110.811 62.5,111.5C 61.8333,112.833 61.1667,114.167 60.5,115.5C 59.7814,117.764 59.448,120.097 59.5,122.5C 59.1667,122.5 58.8333,122.5 58.5,122.5C 53.8503,118.346 49.6836,113.679 46,108.5C 45.3333,106.167 45.3333,103.833 46,101.5C 46.7175,100.549 47.5509,100.383 48.5,101C 49.2106,102.255 50.044,103.421 51,104.5C 51.4384,102.358 52.2718,101.025 53.5,100.5 Z"/></g>
<g><path style="opacity:1" fill="#092f4d" d="M 184.5,103.5 C 187.122,105.782 189.788,108.115 192.5,110.5C 190.374,110.85 188.041,110.85 185.5,110.5C 182.781,109.087 179.781,108.42 176.5,108.5C 176.5,107.5 176.5,106.5 176.5,105.5C 179.513,105.893 182.18,105.226 184.5,103.5 Z"/></g>
<g><path style="opacity:1" fill="#255b88" d="M 165.5,76.5 C 168.133,77.8111 168.133,79.3111 165.5,81C 166.833,82 166.833,83 165.5,84C 166.308,84.3076 166.975,84.8076 167.5,85.5C 166.388,86.2652 165.721,87.2652 165.5,88.5C 165.389,89.1174 165.056,89.6174 164.5,90C 166.066,90.6082 167.4,91.4415 168.5,92.5C 167.325,92.281 166.325,92.6143 165.5,93.5C 169.593,96.0223 171.26,99.6889 170.5,104.5C 166.833,104.5 163.167,104.5 159.5,104.5C 159.5,106.833 159.5,109.167 159.5,111.5C 156.252,111.762 153.252,111.762 150.5,111.5C 154.29,103.418 157.956,95.2514 161.5,87C 159.942,86.79 158.609,86.29 157.5,85.5C 161.989,85.2634 163.989,82.9301 163.5,78.5C 164.167,77.8333 164.833,77.1667 165.5,76.5 Z"/></g>
<g><path style="opacity:1" fill="#021d35" d="M 196.5,105.5 C 197.261,106.391 198.261,107.058 199.5,107.5C 200.429,108.689 200.762,110.022 200.5,111.5C 199.833,111.5 199.167,111.5 198.5,111.5C 196.113,109.087 193.946,106.42 192,103.5C 191.333,102.5 191.333,101.5 192,100.5C 192.996,102.66 194.496,104.327 196.5,105.5 Z"/></g>
<g><path style="opacity:1" fill="#6296b7" d="M 39.5,72.5 C 37.6113,76.0538 36.2779,79.8871 35.5,84C 33.4491,94.1338 34.9491,103.967 40,113.5C 44.4078,118.398 48.5745,123.398 52.5,128.5C 53.0114,131.028 53.6781,133.528 54.5,136C 54.472,137.07 54.1386,137.903 53.5,138.5C 51.7111,136.349 50.3778,133.849 49.5,131C 47.26,130.023 44.9267,129.523 42.5,129.5C 32.4313,116.159 28.4313,101.492 30.5,85.5C 31.7854,80.7165 32.7854,75.8832 33.5,71C 34.0981,69.6988 35.0981,68.8655 36.5,68.5C 37.5207,69.9014 38.5207,71.2347 39.5,72.5 Z"/></g>
<g><path style="opacity:1" fill="#47494a" d="M 228.5,108.5 C 230.062,108.733 231.395,109.4 232.5,110.5C 233.11,112.434 234.11,114.101 235.5,115.5C 235.427,117.027 236.094,118.027 237.5,118.5C 237.5,119.5 237.5,120.5 237.5,121.5C 234.513,118.754 231.847,115.587 229.5,112C 220.526,112.265 211.526,112.431 202.5,112.5C 202.5,111.833 202.833,111.5 203.5,111.5C 204.5,111.5 205.5,111.5 206.5,111.5C 212.417,111.784 218.084,111.117 223.5,109.5C 225.117,108.962 226.784,108.629 228.5,108.5 Z"/></g>
<g><path style="opacity:0.984" fill="#282a2c" d="M 176.5,108.5 C 179.781,108.42 182.781,109.087 185.5,110.5C 183.143,110.337 180.81,110.503 178.5,111C 177.027,111.71 176.36,112.876 176.5,114.5C 173.873,115.092 171.206,115.425 168.5,115.5C 165.669,114.921 163.336,113.588 161.5,111.5C 166.521,110.608 171.521,109.608 176.5,108.5 Z"/></g>
<g><path style="opacity:1" fill="#5e5e5f" d="M 185.5,110.5 C 188.041,110.85 190.374,110.85 192.5,110.5C 194.265,111.461 196.265,111.795 198.5,111.5C 199.167,111.5 199.833,111.5 200.5,111.5C 201.167,111.833 201.833,112.167 202.5,112.5C 195.647,113.275 188.647,113.942 181.5,114.5C 180.5,114.5 179.5,114.5 178.5,114.5C 177.833,114.5 177.167,114.5 176.5,114.5C 176.36,112.876 177.027,111.71 178.5,111C 180.81,110.503 183.143,110.337 185.5,110.5 Z"/></g>
<g><path style="opacity:1" fill="#656565" d="M 141.5,111.5 C 144.71,111.751 147.71,111.751 150.5,111.5C 153.252,111.762 156.252,111.762 159.5,111.5C 160.167,111.5 160.833,111.5 161.5,111.5C 163.336,113.588 165.669,114.921 168.5,115.5C 166.393,116.468 164.059,116.802 161.5,116.5C 161.389,115.883 161.056,115.383 160.5,115C 153.672,114.09 147.005,114.59 140.5,116.5C 136.148,116.323 131.981,115.323 128,113.5C 126.697,113.978 125.531,114.645 124.5,115.5C 124.414,114.504 124.748,113.671 125.5,113C 128.694,112.408 131.861,112.574 135,113.5C 137.4,113.198 139.566,112.532 141.5,111.5 Z"/></g>
<g><path style="opacity:1" fill="#acacac" d="M 161.5,116.5 C 154.201,115.529 147.201,115.529 140.5,116.5C 147.005,114.59 153.672,114.09 160.5,115C 161.056,115.383 161.389,115.883 161.5,116.5 Z"/></g>
<g><path style="opacity:1" fill="#569ac8" d="M 66.5,110.5 C 65.9094,111.151 65.2427,111.818 64.5,112.5C 75.7507,120.877 87.9173,124.543 101,123.5C 107.532,121.6 114.032,119.6 120.5,117.5C 119.071,120.696 117.405,123.696 115.5,126.5C 114.883,126.389 114.383,126.056 114,125.5C 110.327,127.681 106.66,129.015 103,129.5C 98.2485,129.042 93.2485,129.042 88,129.5C 79.9215,127.379 72.0882,124.546 64.5,121C 63.0229,119.188 61.6896,117.355 60.5,115.5C 61.1667,114.167 61.8333,112.833 62.5,111.5C 63.5676,110.566 64.901,110.232 66.5,110.5 Z"/></g>
<g><path style="opacity:1" fill="#cdcdcd" d="M 178.5,114.5 C 179.5,114.5 180.5,114.5 181.5,114.5C 184.273,115.657 187.273,116.324 190.5,116.5C 191.449,117.152 192.615,117.486 194,117.5C 202.033,115.533 210.2,115.033 218.5,116C 216.655,117.128 214.655,117.628 212.5,117.5C 209.187,118.045 205.854,118.545 202.5,119C 215.838,133.349 224.171,149.682 227.5,168C 227.167,169 226.833,170 226.5,171C 227.167,172.333 227.833,173.667 228.5,175C 227.62,176.356 227.286,177.856 227.5,179.5C 224.5,179.5 221.5,179.5 218.5,179.5C 219.531,172.967 218.531,166.467 215.5,160C 215.833,159.667 216.167,159.333 216.5,159C 214.25,155.373 212.416,151.54 211,147.5C 208.201,145.377 206.201,142.71 205,139.5C 203.442,137.641 201.609,136.141 199.5,135C 199.833,134.667 200.167,134.333 200.5,134C 195.121,128.631 189.121,123.964 182.5,120C 183.654,119.086 183.487,118.253 182,117.5C 181.23,118.598 180.397,118.598 179.5,117.5C 178.596,116.791 178.263,115.791 178.5,114.5 Z"/></g>
<g><path style="opacity:1" fill="#b2b2b2" d="M 241.5,136.5 C 240.503,136.47 239.836,136.97 239.5,138C 242.404,146.589 244.071,155.423 244.5,164.5C 245.086,164.291 245.586,163.957 246,163.5C 246.499,159.179 246.666,154.846 246.5,150.5C 247.117,150.611 247.617,150.944 248,151.5C 248.167,154.167 248.333,156.833 248.5,159.5C 247.822,166.877 246.822,174.21 245.5,181.5C 245.5,181.833 245.5,182.167 245.5,182.5C 243.968,185.765 242.635,189.098 241.5,192.5C 241.672,191.508 241.338,190.842 240.5,190.5C 243.102,184.425 244.269,178.092 244,171.5C 243.16,174.202 242.327,176.868 241.5,179.5C 239.5,179.5 237.5,179.5 235.5,179.5C 234.18,159.044 228.346,140.044 218,122.5C 216.578,120.258 214.745,118.591 212.5,117.5C 214.655,117.628 216.655,117.128 218.5,116C 210.2,115.033 202.033,115.533 194,117.5C 192.615,117.486 191.449,117.152 190.5,116.5C 203.03,114.457 215.696,113.957 228.5,115C 233.982,121.462 238.315,128.628 241.5,136.5 Z"/></g>
<g><path style="opacity:1" fill="#e9ddec" d="M 140.5,116.5 C 147.201,115.529 154.201,115.529 161.5,116.5C 162.952,117.302 164.618,117.802 166.5,118C 164.075,118.293 162.242,119.459 161,121.5C 159.853,120.542 158.853,120.875 158,122.5C 157.026,120.122 156.359,120.456 156,123.5C 155.667,123.167 155.333,122.833 155,122.5C 153.997,125.156 152.33,126.156 150,125.5C 149.333,128.167 148.667,128.167 148,125.5C 147,127.167 146,128.833 145,130.5C 144.667,129.833 144.333,129.167 144,128.5C 141.667,130.167 139.333,131.833 137,133.5C 136,133.167 135,132.833 134,132.5C 133.047,134.455 131.713,136.122 130,137.5C 129.667,136.833 129.333,136.167 129,135.5C 127.363,136.833 126.529,138.166 126.5,139.5C 125.017,137.054 123.851,137.388 123,140.5C 122.667,139.833 122.333,139.167 122,138.5C 122.035,142.245 121.035,142.912 119,140.5C 118.333,141.833 117.667,143.167 117,144.5C 116.601,144.272 116.435,143.938 116.5,143.5C 117.923,138.284 118.756,132.951 119,127.5C 121.35,124.473 122.85,121.14 123.5,117.5C 123.328,116.508 123.662,115.842 124.5,115.5C 125.531,114.645 126.697,113.978 128,113.5C 131.981,115.323 136.148,116.323 140.5,116.5 Z"/></g>
<g><path style="opacity:1" fill="#d8d8d8" d="M 179.5,117.5 C 180.397,118.598 181.23,118.598 182,117.5C 183.487,118.253 183.654,119.086 182.5,120C 189.121,123.964 195.121,128.631 200.5,134C 200.167,134.333 199.833,134.667 199.5,135C 201.609,136.141 203.442,137.641 205,139.5C 206.201,142.71 208.201,145.377 211,147.5C 212.416,151.54 214.25,155.373 216.5,159C 216.167,159.333 215.833,159.667 215.5,160C 218.531,166.467 219.531,172.967 218.5,179.5C 216.5,179.5 214.5,179.5 212.5,179.5C 212.918,178.778 213.584,178.278 214.5,178C 214.352,169.794 212.185,161.961 208,154.5C 200.767,144.48 193.433,136.813 186,131.5C 184.984,132.634 184.317,132.301 184,130.5C 183.667,130.833 183.333,131.167 183,131.5C 182.578,129.574 181.411,128.574 179.5,128.5C 178.766,127.292 178.433,125.959 178.5,124.5C 178.668,122.224 179.001,119.891 179.5,117.5 Z"/></g>
<g><path style="opacity:1" fill="#bfbfbf" d="M 212.5,117.5 C 214.745,118.591 216.578,120.258 218,122.5C 228.346,140.044 234.18,159.044 235.5,179.5C 234.167,179.5 232.833,179.5 231.5,179.5C 230.167,179.5 228.833,179.5 227.5,179.5C 227.286,177.856 227.62,176.356 228.5,175C 227.833,173.667 227.167,172.333 226.5,171C 226.833,170 227.167,169 227.5,168C 224.171,149.682 215.838,133.349 202.5,119C 205.854,118.545 209.187,118.045 212.5,117.5 Z"/></g>
<g><path style="opacity:1" fill="#41464a" d="M 126.5,108.5 C 128.806,108.993 131.139,109.326 133.5,109.5C 134.919,110.451 136.585,110.784 138.5,110.5C 139.209,111.404 140.209,111.737 141.5,111.5C 139.566,112.532 137.4,113.198 135,113.5C 131.861,112.574 128.694,112.408 125.5,113C 124.748,113.671 124.414,114.504 124.5,115.5C 123.662,115.842 123.328,116.508 123.5,117.5C 119.543,121.744 116.876,126.744 115.5,132.5C 110.012,145.832 107.678,159.832 108.5,174.5C 107.011,165.223 107.345,155.89 109.5,146.5C 109.892,142.658 110.892,138.991 112.5,135.5C 113.302,132.426 114.302,129.426 115.5,126.5C 117.405,123.696 119.071,120.696 120.5,117.5C 122.735,114.709 124.735,111.709 126.5,108.5 Z"/></g>
<g><path style="opacity:1" fill="#8d8d8d" d="M 237.5,121.5 C 237.971,126.11 239.804,130.11 243,133.5C 243.61,136.827 244.11,140.161 244.5,143.5C 242.935,141.491 241.935,139.157 241.5,136.5C 238.315,128.628 233.982,121.462 228.5,115C 215.696,113.957 203.03,114.457 190.5,116.5C 187.273,116.324 184.273,115.657 181.5,114.5C 188.647,113.942 195.647,113.275 202.5,112.5C 211.526,112.431 220.526,112.265 229.5,112C 231.847,115.587 234.513,118.754 237.5,121.5 Z"/></g>
<g><path style="opacity:1" fill="#336f9e" d="M 58.5,122.5 C 58.8333,122.5 59.1667,122.5 59.5,122.5C 70.9076,132.574 84.0742,137.574 99,137.5C 103.933,136.249 108.433,135.582 112.5,135.5C 110.892,138.991 109.892,142.658 109.5,146.5C 107.932,147.869 106.099,148.869 104,149.5C 85.3469,148.618 68.8469,141.618 54.5,128.5C 55.1272,127.583 55.4606,126.583 55.5,125.5C 56.3065,124.272 57.3065,123.272 58.5,122.5 Z"/></g>
<g><path style="opacity:1" fill="#498ab9" d="M 60.5,115.5 C 61.6896,117.355 63.0229,119.188 64.5,121C 72.0882,124.546 79.9215,127.379 88,129.5C 93.2485,129.042 98.2485,129.042 103,129.5C 106.66,129.015 110.327,127.681 114,125.5C 114.383,126.056 114.883,126.389 115.5,126.5C 114.302,129.426 113.302,132.426 112.5,135.5C 108.433,135.582 103.933,136.249 99,137.5C 84.0742,137.574 70.9076,132.574 59.5,122.5C 59.448,120.097 59.7814,117.764 60.5,115.5 Z"/></g>
<g><path style="opacity:1" fill="#decde3" d="M 176.5,114.5 C 177.167,114.5 177.833,114.5 178.5,114.5C 178.263,115.791 178.596,116.791 179.5,117.5C 179.001,119.891 178.668,122.224 178.5,124.5C 176.871,125.625 175.371,126.959 174,128.5C 173.333,127.167 172.667,127.167 172,128.5C 171.383,129.449 171.549,130.282 172.5,131C 171.531,132.758 170.364,133.258 169,132.5C 168.683,134.301 168.016,134.634 167,133.5C 164.97,134.047 162.803,135.047 160.5,136.5C 159.269,137.651 159.269,138.817 160.5,140C 158.508,140.574 157.008,141.741 156,143.5C 155.667,142.833 155.333,142.167 155,141.5C 152.28,143.881 149.28,145.881 146,147.5C 145.667,147.167 145.333,146.833 145,146.5C 141.285,149.118 137.285,152.118 133,155.5C 132.667,155.167 132.333,154.833 132,154.5C 130.667,155.833 129.333,157.167 128,158.5C 127.667,158.167 127.333,157.833 127,157.5C 126.581,158.672 125.915,159.672 125,160.5C 124,160.5 123,160.5 122,160.5C 120.807,162.605 119.14,164.272 117,165.5C 115.927,165.799 114.76,165.799 113.5,165.5C 113.5,164.5 113.5,163.5 113.5,162.5C 113.678,155.907 114.678,149.574 116.5,143.5C 116.435,143.938 116.601,144.272 117,144.5C 117.667,143.167 118.333,141.833 119,140.5C 121.035,142.912 122.035,142.245 122,138.5C 122.333,139.167 122.667,139.833 123,140.5C 123.851,137.388 125.017,137.054 126.5,139.5C 126.529,138.166 127.363,136.833 129,135.5C 129.333,136.167 129.667,136.833 130,137.5C 131.713,136.122 133.047,134.455 134,132.5C 135,132.833 136,133.167 137,133.5C 139.333,131.833 141.667,130.167 144,128.5C 144.333,129.167 144.667,129.833 145,130.5C 146,128.833 147,127.167 148,125.5C 148.667,128.167 149.333,128.167 150,125.5C 152.33,126.156 153.997,125.156 155,122.5C 155.333,122.833 155.667,123.167 156,123.5C 156.359,120.456 157.026,120.122 158,122.5C 158.853,120.875 159.853,120.542 161,121.5C 162.242,119.459 164.075,118.293 166.5,118C 164.618,117.802 162.952,117.302 161.5,116.5C 164.059,116.802 166.393,116.468 168.5,115.5C 171.206,115.425 173.873,115.092 176.5,114.5 Z"/></g>
<g><path style="opacity:1" fill="#404142" d="M 237.5,121.5 C 238.921,124.009 240.588,126.343 242.5,128.5C 246.455,136.704 248.789,145.37 249.5,154.5C 249.666,160.176 249.499,165.843 249,171.5C 248.241,175.138 247.075,178.471 245.5,181.5C 246.822,174.21 247.822,166.877 248.5,159.5C 248.333,156.833 248.167,154.167 248,151.5C 247.617,150.944 247.117,150.611 246.5,150.5C 246.279,147.933 245.612,145.599 244.5,143.5C 244.11,140.161 243.61,136.827 243,133.5C 239.804,130.11 237.971,126.11 237.5,121.5 Z"/></g>
<g><path style="opacity:1" fill="#b0b0b0" d="M 123.5,117.5 C 122.85,121.14 121.35,124.473 119,127.5C 118.756,132.951 117.923,138.284 116.5,143.5C 114.678,149.574 113.678,155.907 113.5,162.5C 112.883,162.611 112.383,162.944 112,163.5C 111.501,167.821 111.334,172.154 111.5,176.5C 110.778,176.082 110.278,175.416 110,174.5C 109.333,168.5 109.333,162.5 110,156.5C 111.605,148.406 113.439,140.406 115.5,132.5C 116.876,126.744 119.543,121.744 123.5,117.5 Z"/></g>
<g><path style="opacity:1" fill="#e3e3e3" d="M 179.5,128.5 C 181.411,128.574 182.578,129.574 183,131.5C 183.333,131.167 183.667,130.833 184,130.5C 184.317,132.301 184.984,132.634 186,131.5C 193.433,136.813 200.767,144.48 208,154.5C 212.185,161.961 214.352,169.794 214.5,178C 213.584,178.278 212.918,178.778 212.5,179.5C 207.833,179.5 203.167,179.5 198.5,179.5C 199.609,178.71 200.942,178.21 202.5,178C 200.436,176.982 200.102,175.649 201.5,174C 199.007,166.817 195.174,160.65 190,155.5C 189.667,155.833 189.333,156.167 189,156.5C 188.558,154.321 187.558,153.655 186,154.5C 184.47,153.364 183.137,152.364 182,151.5C 181.667,151.833 181.333,152.167 181,152.5C 180.667,151.5 180.333,150.5 180,149.5C 179.5,159.494 179.334,169.494 179.5,179.5C 179.806,182.385 179.473,185.052 178.5,187.5C 178.5,184.833 178.5,182.167 178.5,179.5C 178.5,171.833 178.5,164.167 178.5,156.5C 178.5,151.5 178.5,146.5 178.5,141.5C 178.182,136.968 178.515,132.634 179.5,128.5 Z"/></g>
<g><path style="opacity:1" fill="#275e8b" d="M 55.5,125.5 C 55.4606,126.583 55.1272,127.583 54.5,128.5C 68.8469,141.618 85.3469,148.618 104,149.5C 106.099,148.869 107.932,147.869 109.5,146.5C 107.345,155.89 107.011,165.223 108.5,174.5C 109.301,176.042 109.634,177.708 109.5,179.5C 110.038,181.117 110.371,182.784 110.5,184.5C 107.077,182.553 103.41,181.053 99.5,180C 97.8978,178.065 96.7311,175.899 96,173.5C 95.3292,172.748 94.4959,172.414 93.5,172.5C 88.7519,171.108 84.7519,168.441 81.5,164.5C 76.1734,164.033 71.1734,162.7 66.5,160.5C 67.6785,158.493 67.1785,158.16 65,159.5C 63.513,158.747 63.3463,157.914 64.5,157C 61.4557,156.641 61.1224,155.974 63.5,155C 62.5,154.667 61.5,154.333 60.5,154C 60.8333,153.667 61.1667,153.333 61.5,153C 60.5,152.167 59.5,151.333 58.5,150.5C 60.4233,149.692 62.4233,149.192 64.5,149C 59.6904,146.524 54.6904,144.524 49.5,143C 51.0009,141.748 52.6675,140.748 54.5,140C 53.944,139.617 53.6107,139.117 53.5,138.5C 54.1386,137.903 54.472,137.07 54.5,136C 53.6781,133.528 53.0114,131.028 52.5,128.5C 53.1667,127.167 54.1667,126.167 55.5,125.5 Z"/></g>
<g><path style="opacity:1" fill="#6f6f6f" d="M 115.5,132.5 C 113.439,140.406 111.605,148.406 110,156.5C 109.333,162.5 109.333,168.5 110,174.5C 110.278,175.416 110.778,176.082 111.5,176.5C 111.5,177.833 111.5,179.167 111.5,180.5C 110.833,180.167 110.167,179.833 109.5,179.5C 109.634,177.708 109.301,176.042 108.5,174.5C 107.678,159.832 110.012,145.832 115.5,132.5 Z"/></g>
<g><path style="opacity:1" fill="#d3bed8" d="M 178.5,124.5 C 178.433,125.959 178.766,127.292 179.5,128.5C 178.515,132.634 178.182,136.968 178.5,141.5C 162.802,148.491 147.135,157.325 131.5,168C 132.654,168.914 132.487,169.747 131,170.5C 130.667,170.167 130.333,169.833 130,169.5C 129,170.833 128,172.167 127,173.5C 126.667,173.167 126.333,172.833 126,172.5C 124.749,175.381 122.583,177.214 119.5,178C 122.036,178.186 124.369,178.686 126.5,179.5C 122.563,179.793 118.73,179.46 115,178.5C 114.265,174.187 113.765,169.853 113.5,165.5C 114.76,165.799 115.927,165.799 117,165.5C 119.14,164.272 120.807,162.605 122,160.5C 123,160.5 124,160.5 125,160.5C 125.915,159.672 126.581,158.672 127,157.5C 127.333,157.833 127.667,158.167 128,158.5C 129.333,157.167 130.667,155.833 132,154.5C 132.333,154.833 132.667,155.167 133,155.5C 137.285,152.118 141.285,149.118 145,146.5C 145.333,146.833 145.667,147.167 146,147.5C 149.28,145.881 152.28,143.881 155,141.5C 155.333,142.167 155.667,142.833 156,143.5C 157.008,141.741 158.508,140.574 160.5,140C 159.269,138.817 159.269,137.651 160.5,136.5C 162.803,135.047 164.97,134.047 167,133.5C 168.016,134.634 168.683,134.301 169,132.5C 170.364,133.258 171.531,132.758 172.5,131C 171.549,130.282 171.383,129.449 172,128.5C 172.667,127.167 173.333,127.167 174,128.5C 175.371,126.959 176.871,125.625 178.5,124.5 Z"/></g>
<g><path style="opacity:1" fill="#15436d" d="M 42.5,129.5 C 44.9267,129.523 47.26,130.023 49.5,131C 50.3778,133.849 51.7111,136.349 53.5,138.5C 53.6107,139.117 53.944,139.617 54.5,140C 52.6675,140.748 51.0009,141.748 49.5,143C 54.6904,144.524 59.6904,146.524 64.5,149C 62.4233,149.192 60.4233,149.692 58.5,150.5C 59.5,151.333 60.5,152.167 61.5,153C 61.1667,153.333 60.8333,153.667 60.5,154C 61.5,154.333 62.5,154.667 63.5,155C 61.1224,155.974 61.4557,156.641 64.5,157C 63.3463,157.914 63.513,158.747 65,159.5C 67.1785,158.16 67.6785,158.493 66.5,160.5C 63.8517,160.738 62.0183,162.072 61,164.5C 59.8904,162.963 58.3904,162.297 56.5,162.5C 55.1225,161.766 53.6225,161.099 52,160.5C 51.7744,157.905 51.2744,155.405 50.5,153C 48.8659,152.506 47.1992,152.34 45.5,152.5C 45.2229,149.552 45.5562,146.719 46.5,144C 43.7555,143.372 41.7555,144.372 40.5,147C 39.2068,147.49 37.8734,147.657 36.5,147.5C 33.9092,143.231 32.9092,138.564 33.5,133.5C 34.1667,132.5 34.8333,131.5 35.5,130.5C 37.4008,130.433 39.2341,130.767 41,131.5C 42.0299,131.164 42.5299,130.497 42.5,129.5 Z"/></g>
<g><path style="opacity:1" fill="#051f39" d="M 17.5,130.5 C 19.5757,133.139 21.7423,135.806 24,138.5C 24.3378,143.008 26.5044,146.341 30.5,148.5C 28.097,150.665 28.4304,152.832 31.5,155C 31.1667,156 30.8333,157 30.5,158C 32.5711,161.088 34.2378,164.421 35.5,168C 35.1667,169 34.8333,170 34.5,171C 37.1047,172.931 37.1047,174.764 34.5,176.5C 32.4615,175.723 31.7948,174.557 32.5,173C 30.4476,172.07 28.9476,170.57 28,168.5C 25.5731,163.31 22.9065,158.31 20,153.5C 19.1288,146.683 17.6288,140.016 15.5,133.5C 15.8457,132.304 16.3457,132.304 17,133.5C 17.2602,135.618 18.2602,137.284 20,138.5C 19.5089,135.819 18.6756,133.153 17.5,130.5 Z"/></g>
<g><path style="opacity:1" fill="#336e94" d="M 56.5,162.5 C 56.0618,162.435 55.7284,162.601 55.5,163C 56.7375,163.232 57.7375,163.732 58.5,164.5C 53.3181,165.053 49.6514,162.72 47.5,157.5C 46.3112,156.571 44.9778,156.238 43.5,156.5C 41.6282,153.277 38.9615,151.277 35.5,150.5C 36.1027,149.365 36.4361,148.365 36.5,147.5C 37.8734,147.657 39.2068,147.49 40.5,147C 41.7555,144.372 43.7555,143.372 46.5,144C 45.5562,146.719 45.2229,149.552 45.5,152.5C 47.1992,152.34 48.8659,152.506 50.5,153C 51.2744,155.405 51.7744,157.905 52,160.5C 53.6225,161.099 55.1225,161.766 56.5,162.5 Z"/></g>
<g><path style="opacity:1" fill="#f3f3f3" d="M 198.5,179.5 C 192.167,179.5 185.833,179.5 179.5,179.5C 179.334,169.494 179.5,159.494 180,149.5C 180.333,150.5 180.667,151.5 181,152.5C 181.333,152.167 181.667,151.833 182,151.5C 183.137,152.364 184.47,153.364 186,154.5C 187.558,153.655 188.558,154.321 189,156.5C 189.333,156.167 189.667,155.833 190,155.5C 195.174,160.65 199.007,166.817 201.5,174C 200.102,175.649 200.436,176.982 202.5,178C 200.942,178.21 199.609,178.71 198.5,179.5 Z"/></g>
<g><path style="opacity:1" fill="#c2a8c7" d="M 178.5,141.5 C 178.5,146.5 178.5,151.5 178.5,156.5C 166.497,161.218 156.33,168.218 148,177.5C 147.667,177.167 147.333,176.833 147,176.5C 145.933,177.191 144.766,177.691 143.5,178C 147.025,178.179 150.359,178.679 153.5,179.5C 149.5,179.5 145.5,179.5 141.5,179.5C 136.5,179.5 131.5,179.5 126.5,179.5C 124.369,178.686 122.036,178.186 119.5,178C 122.583,177.214 124.749,175.381 126,172.5C 126.333,172.833 126.667,173.167 127,173.5C 128,172.167 129,170.833 130,169.5C 130.333,169.833 130.667,170.167 131,170.5C 132.487,169.747 132.654,168.914 131.5,168C 147.135,157.325 162.802,148.491 178.5,141.5 Z"/></g>
<g><path style="opacity:1" fill="#d7d6d7" d="M 241.5,136.5 C 241.935,139.157 242.935,141.491 244.5,143.5C 245.612,145.599 246.279,147.933 246.5,150.5C 246.666,154.846 246.499,159.179 246,163.5C 245.586,163.957 245.086,164.291 244.5,164.5C 244.071,155.423 242.404,146.589 239.5,138C 239.836,136.97 240.503,136.47 241.5,136.5 Z"/></g>
<g><path style="opacity:1" fill="#11395c" d="M 43.5,156.5 C 44.9778,156.238 46.3112,156.571 47.5,157.5C 49.6514,162.72 53.3181,165.053 58.5,164.5C 59.6005,165.605 60.2671,166.938 60.5,168.5C 60.7475,170.858 60.0808,172.858 58.5,174.5C 57.5318,176.607 57.1984,178.941 57.5,181.5C 54.8029,178.612 52.6363,175.279 51,171.5C 50.9861,173.598 51.1528,175.431 51.5,177C 50.5,179 49.5,179 48.5,177C 48.8333,176.667 49.1667,176.333 49.5,176C 47.981,174.649 46.6477,173.149 45.5,171.5C 45.7093,170.914 46.0426,170.414 46.5,170C 44.1358,168.988 42.8024,167.655 42.5,166C 42.8485,162.812 42.1819,159.645 40.5,156.5C 41.2334,155.913 42.2334,155.913 43.5,156.5 Z"/></g>
<g><path style="opacity:1" fill="#b090b6" d="M 178.5,156.5 C 178.5,164.167 178.5,171.833 178.5,179.5C 170.167,179.5 161.833,179.5 153.5,179.5C 150.359,178.679 147.025,178.179 143.5,178C 144.766,177.691 145.933,177.191 147,176.5C 147.333,176.833 147.667,177.167 148,177.5C 156.33,168.218 166.497,161.218 178.5,156.5 Z"/></g>
<g><path style="opacity:1" fill="#5a91b3" d="M 66.5,160.5 C 71.1734,162.7 76.1734,164.033 81.5,164.5C 84.7519,168.441 88.7519,171.108 93.5,172.5C 91.665,173.122 90.4983,174.456 90,176.5C 89.6667,175.833 89.3333,175.167 89,174.5C 88.3333,175.833 87.6667,177.167 87,178.5C 86.6667,177.833 86.3333,177.167 86,176.5C 84.3333,177.5 82.6667,178.5 81,179.5C 80.6667,178.833 80.3333,178.167 80,177.5C 79.2155,179.286 78.0488,180.786 76.5,182C 77.4491,182.617 78.2825,182.451 79,181.5C 79.4561,182.744 78.9561,183.577 77.5,184C 79.4517,184.366 81.1184,185.199 82.5,186.5C 82.2172,187.289 81.7172,187.956 81,188.5C 79.8293,186.384 78.3293,185.718 76.5,186.5C 72.1222,181.288 67.2889,176.621 62,172.5C 61.79,170.942 61.29,169.609 60.5,168.5C 60.2671,166.938 59.6005,165.605 58.5,164.5C 57.7375,163.732 56.7375,163.232 55.5,163C 55.7284,162.601 56.0618,162.435 56.5,162.5C 58.3904,162.297 59.8904,162.963 61,164.5C 62.0183,162.072 63.8517,160.738 66.5,160.5 Z"/></g>
<g><path style="opacity:1" fill="#606061" d="M 240.5,190.5 C 240.167,191.5 239.5,192.167 238.5,192.5C 239.707,188.214 240.707,183.88 241.5,179.5C 242.327,176.868 243.16,174.202 244,171.5C 244.269,178.092 243.102,184.425 240.5,190.5 Z"/></g>
<g><path style="opacity:1" fill="#e3e3e3" d="M 113.5,162.5 C 113.5,163.5 113.5,164.5 113.5,165.5C 113.765,169.853 114.265,174.187 115,178.5C 118.73,179.46 122.563,179.793 126.5,179.5C 131.5,179.5 136.5,179.5 141.5,179.5C 139.708,180.309 137.708,180.809 135.5,181C 136.833,181.667 138.167,182.333 139.5,183C 138.833,183.333 138.167,183.667 137.5,184C 139.167,185.667 140.833,187.333 142.5,189C 141.748,189.671 141.414,190.504 141.5,191.5C 141.167,191.5 140.833,191.5 140.5,191.5C 137.733,191.142 135.067,190.475 132.5,189.5C 126.911,187.852 121.245,186.352 115.5,185C 114.616,183.28 113.283,182.114 111.5,181.5C 111.5,181.167 111.5,180.833 111.5,180.5C 111.5,179.167 111.5,177.833 111.5,176.5C 111.334,172.154 111.501,167.821 112,163.5C 112.383,162.944 112.883,162.611 113.5,162.5 Z"/></g>
<g><path style="opacity:1" fill="#f1f1f1" d="M 141.5,179.5 C 145.5,179.5 149.5,179.5 153.5,179.5C 161.833,179.5 170.167,179.5 178.5,179.5C 178.5,182.167 178.5,184.833 178.5,187.5C 178.5,192.167 178.5,196.833 178.5,201.5C 166.097,198.35 153.764,195.016 141.5,191.5C 141.414,190.504 141.748,189.671 142.5,189C 140.833,187.333 139.167,185.667 137.5,184C 138.167,183.667 138.833,183.333 139.5,183C 138.167,182.333 136.833,181.667 135.5,181C 137.708,180.809 139.708,180.309 141.5,179.5 Z"/></g>
<g><path style="opacity:1" fill="#d3b3db" d="M 179.5,179.5 C 185.833,179.5 192.167,179.5 198.5,179.5C 203.167,179.5 207.833,179.5 212.5,179.5C 214.5,179.5 216.5,179.5 218.5,179.5C 221.5,179.5 224.5,179.5 227.5,179.5C 228.833,179.5 230.167,179.5 231.5,179.5C 232.188,182.619 231.355,182.953 229,180.5C 228.333,183.167 227.667,183.167 227,180.5C 226.131,183.763 224.797,184.096 223,181.5C 221.333,182.833 219.667,184.167 218,185.5C 217.667,185.167 217.333,184.833 217,184.5C 212.896,185.554 208.896,186.887 205,188.5C 204.667,188.167 204.333,187.833 204,187.5C 203.581,188.672 202.915,189.672 202,190.5C 199.58,189.512 197.247,189.845 195,191.5C 194.667,191.167 194.333,190.833 194,190.5C 193.395,192.481 192.395,192.815 191,191.5C 190.342,193.108 190.842,194.275 192.5,195C 191.24,196.113 190.073,196.28 189,195.5C 188.683,197.301 188.016,197.634 187,196.5C 183.675,199.528 181.342,198.861 180,194.5C 179.503,196.81 179.337,199.143 179.5,201.5C 179.167,201.5 178.833,201.5 178.5,201.5C 178.5,196.833 178.5,192.167 178.5,187.5C 179.473,185.052 179.806,182.385 179.5,179.5 Z"/></g>
<g><path style="opacity:1" fill="#6e9dbc" d="M 93.5,172.5 C 94.4959,172.414 95.3292,172.748 96,173.5C 96.7311,175.899 97.8978,178.065 99.5,180C 103.41,181.053 107.077,182.553 110.5,184.5C 111.291,187.115 111.957,189.782 112.5,192.5C 112.851,194.869 113.018,197.203 113,199.5C 106.98,198.789 100.813,197.289 94.5,195C 90.684,191.924 86.684,189.09 82.5,186.5C 81.1184,185.199 79.4517,184.366 77.5,184C 78.9561,183.577 79.4561,182.744 79,181.5C 78.2825,182.451 77.4491,182.617 76.5,182C 78.0488,180.786 79.2155,179.286 80,177.5C 80.3333,178.167 80.6667,178.833 81,179.5C 82.6667,178.5 84.3333,177.5 86,176.5C 86.3333,177.167 86.6667,177.833 87,178.5C 87.6667,177.167 88.3333,175.833 89,174.5C 89.3333,175.167 89.6667,175.833 90,176.5C 90.4983,174.456 91.665,173.122 93.5,172.5 Z"/></g>
<g><path style="opacity:1" fill="#a7a7a7" d="M 111.5,181.5 C 113.283,182.114 114.616,183.28 115.5,185C 121.245,186.352 126.911,187.852 132.5,189.5C 132.196,190.15 131.863,190.817 131.5,191.5C 139.192,213.387 154.359,225.72 177,228.5C 177.278,227.584 177.778,226.918 178.5,226.5C 178.5,226.833 178.5,227.167 178.5,227.5C 178.5,231.5 178.5,235.5 178.5,239.5C 178.5,241.167 178.5,242.833 178.5,244.5C 187.917,242.454 196.584,238.787 204.5,233.5C 206.332,232.752 207.999,231.752 209.5,230.5C 209.56,231.043 209.893,231.376 210.5,231.5C 212.739,230.212 215.072,229.212 217.5,228.5C 216.833,229.833 215.833,230.833 214.5,231.5C 208.571,233.155 203.238,235.989 198.5,240C 193.554,241.806 188.888,244.139 184.5,247C 179.688,247.648 175.022,247.148 170.5,245.5C 169.71,244.206 168.71,243.039 167.5,242C 160.142,238.325 153.142,234.159 146.5,229.5C 134.153,219.481 124.819,207.148 118.5,192.5C 118.167,192.833 117.833,193.167 117.5,193.5C 121.86,204.352 128.026,214.018 136,222.5C 136.528,223.816 136.028,224.483 134.5,224.5C 123.434,212.037 115.767,197.704 111.5,181.5 Z"/></g>
<g><path style="opacity:1" fill="#bbbbbb" d="M 132.5,189.5 C 135.067,190.475 137.733,191.142 140.5,191.5C 142.482,200.269 147.149,207.436 154.5,213C 158.954,215.311 163.454,217.478 168,219.5C 170.186,220.022 172.519,220.022 175,219.5C 176.393,222.125 177.559,222.125 178.5,219.5C 178.5,221.833 178.5,224.167 178.5,226.5C 177.778,226.918 177.278,227.584 177,228.5C 154.359,225.72 139.192,213.387 131.5,191.5C 131.863,190.817 132.196,190.15 132.5,189.5 Z"/></g>
<g><path style="opacity:1" fill="#c5a0cd" d="M 231.5,179.5 C 232.833,179.5 234.167,179.5 235.5,179.5C 237.5,179.5 239.5,179.5 241.5,179.5C 240.707,183.88 239.707,188.214 238.5,192.5C 238.011,193.995 237.345,195.329 236.5,196.5C 236.631,195.761 236.464,195.094 236,194.5C 235.333,195.833 234.667,195.833 234,194.5C 233.667,195.167 233.333,195.833 233,196.5C 231.333,196.167 229.667,195.833 228,195.5C 227.667,196.167 227.333,196.833 227,197.5C 223.604,197.41 220.27,197.41 217,197.5C 216,198.167 215,198.833 214,199.5C 211.667,199.5 209.333,199.5 207,199.5C 205.445,201.146 203.779,201.479 202,200.5C 201.683,202.301 201.016,202.634 200,201.5C 197.435,203.179 194.602,203.846 191.5,203.5C 187.36,203.471 183.36,202.804 179.5,201.5C 179.337,199.143 179.503,196.81 180,194.5C 181.342,198.861 183.675,199.528 187,196.5C 188.016,197.634 188.683,197.301 189,195.5C 190.073,196.28 191.24,196.113 192.5,195C 190.842,194.275 190.342,193.108 191,191.5C 192.395,192.815 193.395,192.481 194,190.5C 194.333,190.833 194.667,191.167 195,191.5C 197.247,189.845 199.58,189.512 202,190.5C 202.915,189.672 203.581,188.672 204,187.5C 204.333,187.833 204.667,188.167 205,188.5C 208.896,186.887 212.896,185.554 217,184.5C 217.333,184.833 217.667,185.167 218,185.5C 219.667,184.167 221.333,182.833 223,181.5C 224.797,184.096 226.131,183.763 227,180.5C 227.667,183.167 228.333,183.167 229,180.5C 231.355,182.953 232.188,182.619 231.5,179.5 Z"/></g>
<g><path style="opacity:1" fill="#cecece" d="M 140.5,191.5 C 140.833,191.5 141.167,191.5 141.5,191.5C 153.764,195.016 166.097,198.35 178.5,201.5C 178.5,207.5 178.5,213.5 178.5,219.5C 177.559,222.125 176.393,222.125 175,219.5C 172.519,220.022 170.186,220.022 168,219.5C 163.454,217.478 158.954,215.311 154.5,213C 147.149,207.436 142.482,200.269 140.5,191.5 Z"/></g>
<g><path style="opacity:1" fill="#13314b" d="M 17.5,130.5 C 18.6756,133.153 19.5089,135.819 20,138.5C 18.2602,137.284 17.2602,135.618 17,133.5C 16.3457,132.304 15.8457,132.304 15.5,133.5C 17.6288,140.016 19.1288,146.683 20,153.5C 22.9065,158.31 25.5731,163.31 28,168.5C 28.9476,170.57 30.4476,172.07 32.5,173C 31.7948,174.557 32.4615,175.723 34.5,176.5C 37.1047,174.764 37.1047,172.931 34.5,171C 34.8333,170 35.1667,169 35.5,168C 34.2378,164.421 32.5711,161.088 30.5,158C 30.8333,157 31.1667,156 31.5,155C 28.4304,152.832 28.097,150.665 30.5,148.5C 32.0495,149.441 33.7162,150.107 35.5,150.5C 38.9615,151.277 41.6282,153.277 43.5,156.5C 42.2334,155.913 41.2334,155.913 40.5,156.5C 42.1819,159.645 42.8485,162.812 42.5,166C 42.8024,167.655 44.1358,168.988 46.5,170C 46.0426,170.414 45.7093,170.914 45.5,171.5C 46.6477,173.149 47.981,174.649 49.5,176C 49.1667,176.333 48.8333,176.667 48.5,177C 49.5,179 50.5,179 51.5,177C 51.1528,175.431 50.9861,173.598 51,171.5C 52.6363,175.279 54.8029,178.612 57.5,181.5C 60.8715,188.891 65.7049,195.224 72,200.5C 72.9383,202.488 73.7717,204.488 74.5,206.5C 74.7195,210.044 74.7195,213.378 74.5,216.5C 58.8808,209.034 45.5475,198.701 34.5,185.5C 29.1481,174.425 23.6481,163.425 18,152.5C 15.4644,144.322 13.631,135.988 12.5,127.5C 13.7582,128.016 14.7582,127.35 15.5,125.5C 16.9501,126.85 17.6168,128.516 17.5,130.5 Z"/></g>
<g><path style="opacity:1" fill="#58809b" d="M 60.5,168.5 C 61.29,169.609 61.79,170.942 62,172.5C 67.2889,176.621 72.1222,181.288 76.5,186.5C 78.3293,185.718 79.8293,186.384 81,188.5C 81.7172,187.956 82.2172,187.289 82.5,186.5C 86.684,189.09 90.684,191.924 94.5,195C 100.813,197.289 106.98,198.789 113,199.5C 113.018,197.203 112.851,194.869 112.5,192.5C 113.738,194.214 114.405,196.214 114.5,198.5C 114.736,201.609 114.403,204.609 113.5,207.5C 91.9269,205.852 73.9269,196.686 59.5,180C 59.8333,179.667 60.1667,179.333 60.5,179C 58.8934,177.951 58.2267,176.451 58.5,174.5C 60.0808,172.858 60.7475,170.858 60.5,168.5 Z"/></g>
<g><path style="opacity:1" fill="#b890c1" d="M 236.5,196.5 C 235.345,199.328 234.011,201.995 232.5,204.5C 232.631,203.624 232.298,202.957 231.5,202.5C 224.009,204.713 216.342,205.713 208.5,205.5C 202.591,205.651 196.925,204.984 191.5,203.5C 194.602,203.846 197.435,203.179 200,201.5C 201.016,202.634 201.683,202.301 202,200.5C 203.779,201.479 205.445,201.146 207,199.5C 209.333,199.5 211.667,199.5 214,199.5C 215,198.833 216,198.167 217,197.5C 220.27,197.41 223.604,197.41 227,197.5C 227.333,196.833 227.667,196.167 228,195.5C 229.667,195.833 231.333,196.167 233,196.5C 233.333,195.833 233.667,195.167 234,194.5C 234.667,195.833 235.333,195.833 236,194.5C 236.464,195.094 236.631,195.761 236.5,196.5 Z"/></g>
<g><path style="opacity:1" fill="#d3d2d3" d="M 240.5,190.5 C 241.338,190.842 241.672,191.508 241.5,192.5C 240.17,198.872 237.504,204.539 233.5,209.5C 232.566,208.432 232.232,207.099 232.5,205.5C 232.5,205.167 232.5,204.833 232.5,204.5C 234.011,201.995 235.345,199.328 236.5,196.5C 237.345,195.329 238.011,193.995 238.5,192.5C 239.5,192.167 240.167,191.5 240.5,190.5 Z"/></g>
<g><path style="opacity:1" fill="#444545" d="M 245.5,182.5 C 241.458,205.946 229.458,223.946 209.5,236.5C 210.973,234.605 212.64,232.939 214.5,231.5C 215.833,230.833 216.833,229.833 217.5,228.5C 221.876,225.126 225.542,221.126 228.5,216.5C 230.522,214.469 232.189,212.135 233.5,209.5C 237.504,204.539 240.17,198.872 241.5,192.5C 242.635,189.098 243.968,185.765 245.5,182.5 Z"/></g>
<g><path style="opacity:1" fill="#446680" d="M 58.5,174.5 C 58.2267,176.451 58.8934,177.951 60.5,179C 60.1667,179.333 59.8333,179.667 59.5,180C 73.9269,196.686 91.9269,205.852 113.5,207.5C 111.542,210.852 108.542,212.352 104.5,212C 103.601,213.236 102.434,214.07 101,214.5C 99.2041,214.087 97.5374,214.087 96,214.5C 95.1475,212.875 94.1475,212.542 93,213.5C 91.3333,212.5 89.6667,211.5 88,210.5C 87.6667,210.833 87.3333,211.167 87,211.5C 83.2066,209.684 79.54,207.684 76,205.5C 75.6174,206.056 75.1174,206.389 74.5,206.5C 73.7717,204.488 72.9383,202.488 72,200.5C 65.7049,195.224 60.8715,188.891 57.5,181.5C 57.1984,178.941 57.5318,176.607 58.5,174.5 Z"/></g>
<g><path style="opacity:1" fill="#90569d" d="M 178.5,201.5 C 178.833,201.5 179.167,201.5 179.5,201.5C 183.36,202.804 187.36,203.471 191.5,203.5C 196.925,204.984 202.591,205.651 208.5,205.5C 216.342,205.713 224.009,204.713 231.5,202.5C 232.298,202.957 232.631,203.624 232.5,204.5C 232.5,204.833 232.5,205.167 232.5,205.5C 230.336,207.822 228.669,210.489 227.5,213.5C 226.833,213.833 226.167,214.167 225.5,214.5C 210.431,213.826 195.265,213.159 180,212.5C 179.814,215.036 179.314,217.369 178.5,219.5C 178.5,213.5 178.5,207.5 178.5,201.5 Z"/></g>
<g><path style="opacity:1" fill="#908e90" d="M 232.5,205.5 C 232.232,207.099 232.566,208.432 233.5,209.5C 232.189,212.135 230.522,214.469 228.5,216.5C 228.737,215.209 228.404,214.209 227.5,213.5C 228.669,210.489 230.336,207.822 232.5,205.5 Z"/></g>
<g><path style="opacity:1" fill="#2b4961" d="M 114.5,198.5 C 117.341,202.849 119.674,207.516 121.5,212.5C 121.325,218.677 119.158,219.677 115,215.5C 114.131,218.763 112.797,219.096 111,216.5C 110.667,216.833 110.333,217.167 110,217.5C 108,216.833 106,216.167 104,215.5C 102.551,218.616 100.384,221.116 97.5,223C 102.341,223.344 106.841,224.511 111,226.5C 117.82,226.781 124.486,226.447 131,225.5C 131.708,226.381 132.542,227.047 133.5,227.5C 134.167,227.5 134.5,227.833 134.5,228.5C 113.18,230.32 93.1801,226.32 74.5,216.5C 74.7195,213.378 74.7195,210.044 74.5,206.5C 75.1174,206.389 75.6174,206.056 76,205.5C 79.54,207.684 83.2066,209.684 87,211.5C 87.3333,211.167 87.6667,210.833 88,210.5C 89.6667,211.5 91.3333,212.5 93,213.5C 94.1475,212.542 95.1475,212.875 96,214.5C 97.5374,214.087 99.2041,214.087 101,214.5C 102.434,214.07 103.601,213.236 104.5,212C 108.542,212.352 111.542,210.852 113.5,207.5C 114.403,204.609 114.736,201.609 114.5,198.5 Z"/></g>
<g><path style="opacity:0.996" fill="#323436" d="M 109.5,179.5 C 110.167,179.833 110.833,180.167 111.5,180.5C 111.5,180.833 111.5,181.167 111.5,181.5C 115.767,197.704 123.434,212.037 134.5,224.5C 136.527,227.194 138.861,229.527 141.5,231.5C 140.041,231.433 138.708,231.766 137.5,232.5C 137.672,231.508 137.338,230.842 136.5,230.5C 136.167,229.5 135.5,228.833 134.5,228.5C 134.5,227.833 134.167,227.5 133.5,227.5C 130.253,221.917 126.253,216.917 121.5,212.5C 119.674,207.516 117.341,202.849 114.5,198.5C 114.405,196.214 113.738,194.214 112.5,192.5C 111.957,189.782 111.291,187.115 110.5,184.5C 110.371,182.784 110.038,181.117 109.5,179.5 Z"/></g>
<g><path style="opacity:1" fill="#7a3d87" d="M 225.5,214.5 C 222.542,219.126 218.876,223.126 214.5,226.5C 214.539,225.244 214.039,224.244 213,223.5C 211.475,223.888 209.808,223.888 208,223.5C 206.667,226.167 205.333,226.167 204,223.5C 202.434,222.939 201.101,223.606 200,225.5C 199.333,224.833 198.667,224.167 198,223.5C 196.434,222.939 195.101,223.606 194,225.5C 192.899,223.606 191.566,222.939 190,223.5C 188.667,226.167 187.333,226.167 186,223.5C 184.333,223.833 182.667,224.167 181,224.5C 180.667,223.833 180.333,223.167 180,222.5C 179.802,224.382 179.302,226.048 178.5,227.5C 178.5,227.167 178.5,226.833 178.5,226.5C 178.5,224.167 178.5,221.833 178.5,219.5C 179.314,217.369 179.814,215.036 180,212.5C 195.265,213.159 210.431,213.826 225.5,214.5 Z"/></g>
<g><path style="opacity:1" fill="#828282" d="M 146.5,229.5 C 144.989,230.502 143.322,231.169 141.5,231.5C 138.861,229.527 136.527,227.194 134.5,224.5C 136.028,224.483 136.528,223.816 136,222.5C 128.026,214.018 121.86,204.352 117.5,193.5C 117.833,193.167 118.167,192.833 118.5,192.5C 124.819,207.148 134.153,219.481 146.5,229.5 Z"/></g>
<g><path style="opacity:1" fill="#183650" d="M 121.5,212.5 C 126.253,216.917 130.253,221.917 133.5,227.5C 132.542,227.047 131.708,226.381 131,225.5C 124.486,226.447 117.82,226.781 111,226.5C 106.841,224.511 102.341,223.344 97.5,223C 100.384,221.116 102.551,218.616 104,215.5C 106,216.167 108,216.833 110,217.5C 110.333,217.167 110.667,216.833 111,216.5C 112.797,219.096 114.131,218.763 115,215.5C 119.158,219.677 121.325,218.677 121.5,212.5 Z"/></g>
<g><path style="opacity:1" fill="#3e5f78" d="M 31.5,183.5 C 32.2223,184.551 33.2223,185.218 34.5,185.5C 45.5475,198.701 58.8808,209.034 74.5,216.5C 93.1801,226.32 113.18,230.32 134.5,228.5C 135.5,228.833 136.167,229.5 136.5,230.5C 123.411,230.957 110.411,230.123 97.5,228C 89.6777,225.17 81.8444,222.337 74,219.5C 64.0737,215.232 55.5737,209.065 48.5,201C 42.6526,196.481 37.1526,191.648 32,186.5C 31.5172,185.552 31.3505,184.552 31.5,183.5 Z"/></g>
<g><path style="opacity:1" fill="#652472" d="M 214.5,226.5 C 212.833,227.833 211.167,229.167 209.5,230.5C 207.999,231.752 206.332,232.752 204.5,233.5C 204.719,232.325 204.386,231.325 203.5,230.5C 195.93,230.584 188.763,230.918 182,231.5C 181.333,230.833 180.667,230.167 180,229.5C 179.821,233.025 179.321,236.359 178.5,239.5C 178.5,235.5 178.5,231.5 178.5,227.5C 179.302,226.048 179.802,224.382 180,222.5C 180.333,223.167 180.667,223.833 181,224.5C 182.667,224.167 184.333,223.833 186,223.5C 187.333,226.167 188.667,226.167 190,223.5C 191.566,222.939 192.899,223.606 194,225.5C 195.101,223.606 196.434,222.939 198,223.5C 198.667,224.167 199.333,224.833 200,225.5C 201.101,223.606 202.434,222.939 204,223.5C 205.333,226.167 206.667,226.167 208,223.5C 209.808,223.888 211.475,223.888 213,223.5C 214.039,224.244 214.539,225.244 214.5,226.5 Z"/></g>
<g><path style="opacity:1" fill="#581465" d="M 204.5,233.5 C 196.584,238.787 187.917,242.454 178.5,244.5C 178.5,242.833 178.5,241.167 178.5,239.5C 179.321,236.359 179.821,233.025 180,229.5C 180.667,230.167 181.333,230.833 182,231.5C 188.763,230.918 195.93,230.584 203.5,230.5C 204.386,231.325 204.719,232.325 204.5,233.5 Z"/></g>
<g><path style="opacity:1" fill="#c8c7c8" d="M 227.5,213.5 C 228.404,214.209 228.737,215.209 228.5,216.5C 225.542,221.126 221.876,225.126 217.5,228.5C 215.072,229.212 212.739,230.212 210.5,231.5C 209.893,231.376 209.56,231.043 209.5,230.5C 211.167,229.167 212.833,227.833 214.5,226.5C 218.876,223.126 222.542,219.126 225.5,214.5C 226.167,214.167 226.833,213.833 227.5,213.5 Z"/></g>
<g><path style="opacity:1" fill="#6289a4" d="M 74.5,13.5 C 75.8734,13.3433 77.2068,13.51 78.5,14C 71.1954,20.4708 63.1954,25.6374 54.5,29.5C 53.9338,32.5826 53.9338,35.5826 54.5,38.5C 52.7141,44.1559 49.8807,44.8225 46,40.5C 42.2782,44.725 38.1115,48.3916 33.5,51.5C 29.101,56.9698 25.7677,62.9698 23.5,69.5C 21.7346,71.5002 20.0679,73.6669 18.5,76C 17.1007,82.2978 15.2674,88.4644 13,94.5C 12.0155,104.194 10.8489,113.861 9.5,123.5C 9.96443,126.349 10.6311,129.016 11.5,131.5C 12.2204,140.717 14.0537,149.717 17,158.5C 21.3733,167.267 26.2067,175.6 31.5,183.5C 31.3505,184.552 31.5172,185.552 32,186.5C 37.1526,191.648 42.6526,196.481 48.5,201C 55.5737,209.065 64.0737,215.232 74,219.5C 81.8444,222.337 89.6777,225.17 97.5,228C 110.411,230.123 123.411,230.957 136.5,230.5C 137.338,230.842 137.672,231.508 137.5,232.5C 89.4476,236.719 51.9476,219.052 25,179.5C 1.27518,137.483 1.77518,95.8166 26.5,54.5C 27.9063,54.0269 28.573,53.0269 28.5,51.5C 30.543,50.4206 31.8763,48.754 32.5,46.5C 32.5,45.8333 32.8333,45.5 33.5,45.5C 36.9031,43.1002 39.5698,40.1002 41.5,36.5C 44.4274,35.2427 46.7607,33.2427 48.5,30.5C 51.9289,26.7376 55.9289,23.7376 60.5,21.5C 62.0269,21.573 63.0269,20.9063 63.5,19.5C 64.5137,18.3263 65.847,17.6596 67.5,17.5C 69.0269,17.573 70.0269,16.9063 70.5,15.5C 71.5137,14.3263 72.847,13.6596 74.5,13.5 Z"/></g>
<g><path style="opacity:1" fill="#656565" d="M 146.5,229.5 C 153.142,234.159 160.142,238.325 167.5,242C 168.71,243.039 169.71,244.206 170.5,245.5C 163.65,242.581 156.65,239.914 149.5,237.5C 146.109,236.471 143.443,234.471 141.5,231.5C 143.322,231.169 144.989,230.502 146.5,229.5 Z"/></g>
<g><path style="opacity:0.996" fill="#3c3d3d" d="M 209.5,236.5 C 204.591,240.79 198.924,243.79 192.5,245.5C 197.437,241.255 203.104,238.255 209.5,236.5 Z"/></g>
<g><path style="opacity:0.996" fill="#333334" d="M 149.5,237.5 C 156.65,239.914 163.65,242.581 170.5,245.5C 173.66,248 177.327,249.333 181.5,249.5C 177.489,250.673 173.489,250.173 169.5,248C 162.045,245.775 155.378,242.275 149.5,237.5 Z"/></g>
<g><path style="opacity:0.996" fill="#686868" d="M 214.5,231.5 C 212.64,232.939 210.973,234.605 209.5,236.5C 203.104,238.255 197.437,241.255 192.5,245.5C 189.2,247.642 185.533,248.975 181.5,249.5C 177.327,249.333 173.66,248 170.5,245.5C 175.022,247.148 179.688,247.648 184.5,247C 188.888,244.139 193.554,241.806 198.5,240C 203.238,235.989 208.571,233.155 214.5,231.5 Z"/></g>
</svg>
